<svg width="24" height="24" viewBox="0 0 24 24" fill="none" xmlns="http://www.w3.org/2000/svg">
<g id="Causa Logo">
<g id="Type=Brand Mark, State=White" clip-path="url(#clip0_1_2465)">
<path id="Vector" fill-rule="evenodd" clip-rule="evenodd" d="M12.6484 8.77936V11.9736C12.6484 12.3391 12.352 12.6354 11.9866 12.6354C11.6211 12.6354 11.3247 12.3386 11.3247 11.9736V8.77936C11.5408 8.81182 11.7616 8.82899 11.9866 8.82899C12.2115 8.82899 12.4327 8.81229 12.6484 8.77936Z" fill="white"/>
<path id="Vector_2" fill-rule="evenodd" clip-rule="evenodd" d="M11.3247 8.77934C9.20186 8.45978 7.57205 6.6259 7.57205 4.41449C7.57205 1.97812 9.55018 0 11.9865 0C14.4229 0 16.401 1.97812 16.401 4.41449C16.401 6.6259 14.7712 8.45978 12.6484 8.77934C12.4327 8.81181 12.2115 8.82897 11.9865 8.82897C11.7616 8.82897 11.5408 8.81227 11.3247 8.77934ZM8.89621 4.41449C8.89621 6.12036 10.2811 7.50528 11.9865 7.50528C13.6919 7.50528 15.0773 6.12036 15.0773 4.41449C15.0773 2.70862 13.6924 1.3237 11.9865 1.3237C10.2807 1.3237 8.89621 2.70862 8.89621 4.41449Z" fill="white"/>
<path id="Vector_3" fill-rule="evenodd" clip-rule="evenodd" d="M11.9865 3.1488C12.685 3.1488 13.2523 3.71604 13.2523 4.41452C13.2523 5.11301 12.685 5.68025 11.9865 5.68025C11.2881 5.68025 10.7208 5.11301 10.7208 4.41452C10.7208 3.71604 11.2881 3.1488 11.9865 3.1488Z" fill="white"/>
<path id="Vector_4" fill-rule="evenodd" clip-rule="evenodd" d="M4.39963 10.8029C5.09812 10.8029 5.66535 11.3701 5.66535 12.0686C5.66535 12.7671 5.09812 13.3344 4.39963 13.3344C3.70114 13.3344 3.13391 12.7671 3.13391 12.0686C3.13391 11.3701 3.70114 10.8029 4.39963 10.8029Z" fill="white"/>
<path id="Vector_5" fill-rule="evenodd" clip-rule="evenodd" d="M14.8514 20.8828L12.6108 18.6273C12.352 18.3666 12.3534 17.945 12.6141 17.6862C12.8747 17.4274 13.2963 17.4288 13.5551 17.6895L15.145 19.2901V19.5623C15.145 20.0345 15.0398 20.482 14.8514 20.8828Z" fill="white"/>
<path id="Vector_6" fill-rule="evenodd" clip-rule="evenodd" d="M21.9291 14.0542L20.1834 12.2968C19.9245 12.0362 19.9259 11.6146 20.1866 11.3558C20.4473 11.097 20.8689 11.0984 21.1277 11.359L22.584 12.8251C22.5219 13.0565 22.4337 13.2773 22.3224 13.4842C22.2125 13.6892 22.0803 13.8803 21.9291 14.0542Z" fill="white"/>
<path id="Vector_7" fill-rule="evenodd" clip-rule="evenodd" d="M9.63412 17.5935L11.321 19.2915C11.5798 19.5521 11.5784 19.9737 11.3177 20.2325C11.0571 20.4913 10.6355 20.4899 10.3767 20.2293L9.01123 18.855C9.11605 18.4042 9.3192 17.9914 9.59655 17.6394C9.60861 17.6241 9.62113 17.6083 9.63366 17.593L9.63412 17.5935Z" fill="white"/>
<path id="Vector_8" fill-rule="evenodd" clip-rule="evenodd" d="M16.7535 10.7315L18.951 12.9439C19.2098 13.2045 19.2084 13.6261 18.9478 13.8849C18.6871 14.1437 18.2655 14.1423 18.0067 13.8817L16.4757 12.3404V12.0172C16.4757 11.5585 16.5749 11.1234 16.7535 10.7315Z" fill="white"/>
<path id="Vector_9" fill-rule="evenodd" clip-rule="evenodd" d="M16.4762 16.4548V19.5619C16.4762 22.0131 14.4892 23.9995 12.038 23.9995C9.58684 23.9995 7.5999 22.0126 7.5999 19.5619C7.5999 17.1107 9.58684 15.1237 12.038 15.1237H15.1451V12.0167C15.1451 9.56549 17.132 7.57855 19.5827 7.57855C22.0339 7.57855 24.0209 9.56549 24.0209 12.0167C24.0209 14.4679 22.0339 16.4548 19.5827 16.4548H16.4757H16.4762ZM9.01172 18.855C9.00662 18.8777 9.00151 18.9005 8.99641 18.9237C8.95328 19.1296 8.93102 19.3429 8.93102 19.5619C8.93102 21.2779 10.322 22.6689 12.038 22.6689C13.2323 22.6689 14.2694 21.995 14.7893 21.0071C14.8107 20.9663 14.8315 20.9245 14.8515 20.8823C15.0398 20.4816 15.1451 20.034 15.1451 19.5619V16.4548H12.038C11.0692 16.4548 10.2042 16.8982 9.63414 17.593C9.62162 17.6083 9.6091 17.6236 9.59704 17.6394C9.31968 17.991 9.117 18.4042 9.01172 18.855ZM16.4762 12.0167V15.1237H19.5832C20.5196 15.1237 21.3596 14.7095 21.9291 14.0537C22.0803 13.8798 22.2125 13.6887 22.3224 13.4837C22.4333 13.2768 22.5219 13.0561 22.584 12.8246C22.6531 12.5668 22.6902 12.2959 22.6902 12.0167C22.6902 11.9995 22.6902 11.9824 22.6902 11.9652C22.6629 10.2728 21.2826 8.90967 19.5837 8.90967C18.375 8.90967 17.3273 9.60027 16.8134 10.6081C16.7925 10.6485 16.773 10.6897 16.754 10.731C16.5754 11.1229 16.4762 11.558 16.4762 12.0167Z" fill="white"/>
<path id="Vector_10" fill-rule="evenodd" clip-rule="evenodd" d="M6.89862 16.4706L4.46504 16.4725C3.28095 16.4725 2.14509 16.0022 1.30746 15.1646C0.470297 14.3274 0 13.1916 0 12.007C0 9.54095 1.999 7.54196 4.46504 7.54196L6.94268 7.5401C7.31233 7.5401 7.61241 7.84018 7.61241 8.20937C7.61241 8.57856 7.31233 8.8791 6.94268 8.8791L4.46504 8.88096C2.7383 8.88096 1.339 10.2807 1.339 12.007C1.339 12.8363 1.6683 13.6312 2.25455 14.2175C2.8408 14.8037 3.63622 15.133 4.46504 15.133L6.99092 15.1312C6.99973 15.1312 7.00901 15.1312 7.01782 15.1316H10.0516C9.05299 15.4753 8.58594 16.0231 8.25988 16.4502L6.89862 16.4734V16.4702V16.4706Z" fill="white"/>
</g>
</g>
<defs>
<clipPath id="clip0_1_2465">
<rect width="24" height="24" fill="white"/>
</clipPath>
</defs>
</svg>
