<svg width="74" height="24" viewBox="0 0 74 24" fill="none" xmlns="http://www.w3.org/2000/svg">
<g id="Causa Logo">
<g id="Type=Primary Logo, State=White" clip-path="url(#clip0_1_2465)">
<path id="Vector" fill-rule="evenodd" clip-rule="evenodd" d="M12.6484 8.77936V11.9736C12.6484 12.3391 12.352 12.6354 11.9866 12.6354C11.6211 12.6354 11.3247 12.3386 11.3247 11.9736V8.77936C11.5408 8.81182 11.7616 8.82899 11.9866 8.82899C12.2115 8.82899 12.4327 8.81229 12.6484 8.77936Z" fill="white"/>
<path id="Vector_2" fill-rule="evenodd" clip-rule="evenodd" d="M11.3247 8.77934C9.20186 8.45978 7.57205 6.6259 7.57205 4.41449C7.57205 1.97812 9.55018 0 11.9865 0C14.4229 0 16.401 1.97812 16.401 4.41449C16.401 6.6259 14.7712 8.45978 12.6484 8.77934C12.4327 8.81181 12.2115 8.82897 11.9865 8.82897C11.7616 8.82897 11.5408 8.81227 11.3247 8.77934ZM8.89621 4.41449C8.89621 6.12036 10.2811 7.50528 11.9865 7.50528C13.6919 7.50528 15.0773 6.12036 15.0773 4.41449C15.0773 2.70862 13.6924 1.3237 11.9865 1.3237C10.2807 1.3237 8.89621 2.70862 8.89621 4.41449Z" fill="white"/>
<path id="Vector_3" fill-rule="evenodd" clip-rule="evenodd" d="M11.9865 3.1488C12.685 3.1488 13.2523 3.71604 13.2523 4.41452C13.2523 5.11301 12.685 5.68025 11.9865 5.68025C11.2881 5.68025 10.7208 5.11301 10.7208 4.41452C10.7208 3.71604 11.2881 3.1488 11.9865 3.1488Z" fill="white"/>
<path id="Vector_4" fill-rule="evenodd" clip-rule="evenodd" d="M4.39963 10.8029C5.09812 10.8029 5.66535 11.3701 5.66535 12.0686C5.66535 12.7671 5.09812 13.3344 4.39963 13.3344C3.70114 13.3344 3.13391 12.7671 3.13391 12.0686C3.13391 11.3701 3.70114 10.8029 4.39963 10.8029Z" fill="white"/>
<path id="Vector_5" fill-rule="evenodd" clip-rule="evenodd" d="M14.8514 20.8828L12.6108 18.6273C12.352 18.3666 12.3534 17.945 12.6141 17.6862C12.8747 17.4274 13.2963 17.4288 13.5551 17.6895L15.145 19.2901V19.5623C15.145 20.0345 15.0398 20.482 14.8514 20.8828Z" fill="white"/>
<path id="Vector_6" fill-rule="evenodd" clip-rule="evenodd" d="M21.9291 14.0542L20.1834 12.2968C19.9245 12.0362 19.9259 11.6146 20.1866 11.3558C20.4473 11.097 20.8689 11.0984 21.1277 11.359L22.584 12.8251C22.5219 13.0565 22.4337 13.2773 22.3224 13.4842C22.2125 13.6892 22.0803 13.8803 21.9291 14.0542Z" fill="white"/>
<path id="Vector_7" fill-rule="evenodd" clip-rule="evenodd" d="M9.63412 17.5935L11.321 19.2915C11.5798 19.5521 11.5784 19.9737 11.3177 20.2325C11.0571 20.4913 10.6355 20.4899 10.3767 20.2293L9.01123 18.855C9.11605 18.4042 9.3192 17.9914 9.59655 17.6394C9.60861 17.6241 9.62113 17.6083 9.63366 17.593L9.63412 17.5935Z" fill="white"/>
<path id="Vector_8" fill-rule="evenodd" clip-rule="evenodd" d="M16.7535 10.7315L18.951 12.9439C19.2098 13.2045 19.2084 13.6261 18.9478 13.8849C18.6871 14.1437 18.2655 14.1423 18.0067 13.8817L16.4757 12.3404V12.0172C16.4757 11.5585 16.5749 11.1234 16.7535 10.7315Z" fill="white"/>
<path id="Vector_9" fill-rule="evenodd" clip-rule="evenodd" d="M16.4762 16.4548V19.5619C16.4762 22.0131 14.4892 23.9995 12.038 23.9995C9.58684 23.9995 7.5999 22.0126 7.5999 19.5619C7.5999 17.1107 9.58684 15.1237 12.038 15.1237H15.1451V12.0167C15.1451 9.56549 17.132 7.57855 19.5827 7.57855C22.0339 7.57855 24.0209 9.56549 24.0209 12.0167C24.0209 14.4679 22.0339 16.4548 19.5827 16.4548H16.4757H16.4762ZM9.01172 18.855C9.00662 18.8777 9.00151 18.9005 8.99641 18.9237C8.95328 19.1296 8.93102 19.3429 8.93102 19.5619C8.93102 21.2779 10.322 22.6689 12.038 22.6689C13.2323 22.6689 14.2694 21.995 14.7893 21.0071C14.8107 20.9663 14.8315 20.9245 14.8515 20.8823C15.0398 20.4816 15.1451 20.034 15.1451 19.5619V16.4548H12.038C11.0692 16.4548 10.2042 16.8982 9.63414 17.593C9.62162 17.6083 9.6091 17.6236 9.59704 17.6394C9.31968 17.991 9.117 18.4042 9.01172 18.855ZM16.4762 12.0167V15.1237H19.5832C20.5196 15.1237 21.3596 14.7095 21.9291 14.0537C22.0803 13.8798 22.2125 13.6887 22.3224 13.4837C22.4333 13.2768 22.5219 13.0561 22.584 12.8246C22.6531 12.5668 22.6902 12.2959 22.6902 12.0167C22.6902 11.9995 22.6902 11.9824 22.6902 11.9652C22.6629 10.2728 21.2826 8.90967 19.5837 8.90967C18.375 8.90967 17.3273 9.60027 16.8134 10.6081C16.7925 10.6485 16.773 10.6897 16.754 10.731C16.5754 11.1229 16.4762 11.558 16.4762 12.0167Z" fill="white"/>
<path id="Vector_10" fill-rule="evenodd" clip-rule="evenodd" d="M6.89862 16.4706L4.46504 16.4725C3.28095 16.4725 2.14509 16.0022 1.30746 15.1646C0.470297 14.3274 0 13.1916 0 12.007C0 9.54095 1.999 7.54196 4.46504 7.54196L6.94268 7.5401C7.31233 7.5401 7.61241 7.84018 7.61241 8.20937C7.61241 8.57856 7.31233 8.8791 6.94268 8.8791L4.46504 8.88096C2.7383 8.88096 1.339 10.2807 1.339 12.007C1.339 12.8363 1.6683 13.6312 2.25455 14.2175C2.8408 14.8037 3.63622 15.133 4.46504 15.133L6.99092 15.1312C6.99973 15.1312 7.00901 15.1312 7.01782 15.1316H10.0516C9.05299 15.4753 8.58594 16.0231 8.25988 16.4502L6.89862 16.4734V16.4702V16.4706Z" fill="white"/>
<path id="Vector_11" fill-rule="evenodd" clip-rule="evenodd" d="M34.3336 13.7606L34.3363 13.7615C34.5506 13.8812 34.6986 14.0917 34.7385 14.3338C34.7783 14.5759 34.7065 14.8231 34.5423 15.0054C34.2385 15.3384 33.8772 15.6251 33.4574 15.8644C32.7543 16.2651 31.9746 16.4655 31.1189 16.4655C29.7943 16.4655 28.6932 16.0388 27.8139 15.1868C26.934 14.3338 26.4934 13.2754 26.4934 12.0102C26.4934 10.7449 26.934 9.68651 27.8139 8.83358C28.6928 7.98157 29.7943 7.55487 31.1189 7.55487C31.9867 7.55487 32.7659 7.7557 33.4579 8.15642C33.8776 8.39946 34.2329 8.69397 34.5237 9.03858C34.6772 9.22271 34.7403 9.46528 34.6962 9.70043C34.6526 9.93465 34.507 10.1373 34.2992 10.2533C34.2918 10.2584 34.2839 10.2626 34.276 10.2672C33.9528 10.4462 33.5474 10.3688 33.3127 10.0831C33.1281 9.85951 32.9004 9.66889 32.6295 9.51073C32.1852 9.251 31.6815 9.1216 31.1189 9.1216C30.2748 9.1216 29.5684 9.3971 29.0003 9.94949C28.4326 10.5014 28.1492 11.1883 28.1492 12.0102C28.1492 12.832 28.4326 13.5027 29.0003 14.0546C29.5684 14.607 30.2748 14.8825 31.1189 14.8825C31.682 14.8825 32.1885 14.7554 32.6388 14.5008C32.9138 14.3454 33.1485 14.1567 33.3433 13.9345C33.591 13.6497 34.0038 13.5774 34.3336 13.7601V13.7606ZM43.4714 8.59982C43.4714 8.14251 43.842 7.77193 44.2993 7.77193C44.5187 7.77193 44.7293 7.85913 44.8846 8.0145C45.04 8.16987 45.1272 8.38044 45.1272 8.59982V15.4214C45.1272 15.6408 45.04 15.8514 44.8846 16.0068C44.7293 16.1621 44.5187 16.2493 44.2993 16.2493C43.842 16.2493 43.4714 15.8788 43.4714 15.4214V14.9753C42.714 15.9683 41.6496 16.4659 40.2767 16.4659C39.0449 16.4659 37.9948 16.0337 37.1266 15.1701C36.2583 14.306 35.8242 13.2532 35.8242 12.0106C35.8242 10.7681 36.2583 9.71527 37.1266 8.8512C37.9948 7.98714 39.0449 7.55533 40.2767 7.55533C41.6491 7.55533 42.7136 8.053 43.4714 9.046V8.59936V8.59982ZM40.4674 14.9164C41.3231 14.9164 42.0378 14.6381 42.612 14.0801C43.1853 13.5231 43.4714 12.833 43.4714 12.0106C43.4714 11.1883 43.1853 10.4986 42.612 9.94114C42.0378 9.38319 41.3226 9.1049 40.4674 9.1049C39.6121 9.1049 38.9141 9.38319 38.3399 9.94114C37.7666 10.4982 37.4805 11.1883 37.4805 12.0102C37.4805 12.832 37.7666 13.5222 38.3399 14.0797C38.9141 14.6376 39.6232 14.9159 40.4674 14.9159V14.9164ZM53.3055 8.50335C53.3055 8.04094 53.6802 7.66618 54.1426 7.66618C54.605 7.66618 54.9798 8.04094 54.9798 8.50335V15.4099C54.9798 15.8723 54.605 16.247 54.1426 16.247C53.6802 16.247 53.3055 15.8723 53.3055 15.4099V15.1979C52.6733 16.0425 51.7531 16.4664 50.543 16.4664C49.493 16.4664 48.6521 16.1459 48.0199 15.5082C47.3878 14.8709 47.0696 14.0082 47.0696 12.9178V8.50381C47.0696 8.0414 47.4444 7.66665 47.9068 7.66665C48.3692 7.66665 48.7439 8.0414 48.7439 8.50381V12.8339C48.7439 13.4957 48.9271 14.0096 49.2991 14.3733C49.6716 14.7373 50.1859 14.9164 50.8403 14.9164C51.5773 14.9164 52.1733 14.697 52.6269 14.255C53.0819 13.8116 53.305 13.1293 53.305 12.2096V8.50381L53.3055 8.50335ZM57.1736 14.0087L57.1815 14.0027C57.52 13.8158 57.9444 13.8997 58.1861 14.2016C58.1861 14.2016 58.1861 14.2016 58.1861 14.2021C58.3108 14.3603 58.4676 14.4962 58.6554 14.6112C59.0251 14.8375 59.4676 14.9498 59.9828 14.9498C60.4638 14.9498 60.8608 14.8626 61.1739 14.6849C61.4721 14.5156 61.6201 14.2513 61.6201 13.8928C61.6201 13.5968 61.4633 13.3622 61.1558 13.1836C60.827 12.9925 60.4295 12.8399 59.9648 12.7254C59.4898 12.6085 59.0153 12.4717 58.5404 12.3158C58.0553 12.1563 57.6411 11.8942 57.2979 11.5297C56.9505 11.1609 56.7756 10.6888 56.7756 10.1123C56.7756 9.36695 57.0762 8.75334 57.6777 8.27145C58.2728 7.79512 59.0177 7.55533 59.9133 7.55533C60.6308 7.55533 61.2685 7.71164 61.8269 8.02285C62.102 8.1759 62.3431 8.35864 62.5514 8.57014C62.7235 8.74499 62.8032 8.99081 62.7671 9.23291C62.7313 9.47224 62.5862 9.68141 62.3747 9.79922L62.3645 9.80664C62.0477 9.97778 61.6544 9.90543 61.4192 9.63225C61.0844 9.24497 60.5811 9.05481 59.9128 9.05481C59.5023 9.05481 59.1522 9.14711 58.8637 9.33402C58.5868 9.51351 58.4481 9.76722 58.4481 10.0951C58.4481 10.391 58.6049 10.6257 58.9124 10.8043C59.2412 10.9954 59.6387 11.148 60.1034 11.2625C60.5779 11.3794 61.0524 11.513 61.5268 11.6637C62.0124 11.8177 62.4271 12.0797 62.7703 12.4503C63.1172 12.8246 63.2921 13.3046 63.2921 13.8923C63.2921 14.6724 62.9795 15.2976 62.3538 15.7679C61.7365 16.2322 60.9462 16.4659 59.9814 16.4659C59.1243 16.4659 58.3911 16.2841 57.7807 15.9224C57.456 15.7299 57.181 15.504 56.9551 15.2447C56.7956 15.0597 56.7274 14.8129 56.7705 14.5727C56.8132 14.3338 56.9607 14.127 57.1722 14.0087H57.1736ZM71.7755 8.60028C71.7755 8.14297 72.1461 7.77239 72.6034 7.77239C72.8228 7.77239 73.0338 7.85959 73.1887 8.01496C73.3441 8.17034 73.4313 8.38091 73.4313 8.60028V15.4219C73.4313 15.6413 73.3441 15.8519 73.1887 16.0072C73.0334 16.1626 72.8228 16.2498 72.6034 16.2498C72.1461 16.2498 71.7755 15.8792 71.7755 15.4219V14.9757C71.0181 15.9687 69.9537 16.4664 68.5808 16.4664C67.349 16.4664 66.2989 16.0341 65.4307 15.1705C64.5624 14.3065 64.1283 13.2536 64.1283 12.0111C64.1283 10.7686 64.5624 9.71573 65.4307 8.85167C66.2989 7.9876 67.349 7.5558 68.5808 7.5558C69.9532 7.5558 71.0177 8.05346 71.7755 9.04646V8.59982V8.60028ZM68.7715 14.9168C69.6272 14.9168 70.3419 14.6385 70.9161 14.0806C71.4894 13.5236 71.7755 12.8334 71.7755 12.0111C71.7755 11.1888 71.4894 10.4991 70.9161 9.94161C70.3419 9.38365 69.6272 9.10537 68.7715 9.10537C67.9157 9.10537 67.2182 9.38365 66.644 9.94161C66.0707 10.4986 65.7846 11.1888 65.7846 12.0106C65.7846 12.8325 66.0707 13.5226 66.644 14.0801C67.2182 14.6381 67.9273 14.9164 68.7715 14.9164V14.9168Z" fill="white"/>
</g>
</g>
<defs>
<clipPath id="clip0_1_2465">
<rect width="73.4313" height="24" fill="white"/>
</clipPath>
</defs>
</svg>
