<svg width="73" height="24" viewBox="0 0 73 24" fill="none" xmlns="http://www.w3.org/2000/svg">
<g id="Causa Logo">
<g id="Type=Primary Logo, State=Default" clip-path="url(#clip0_1_2465)">
<g id="Logo Brand">
<path id="Vector" fill-rule="evenodd" clip-rule="evenodd" d="M12.6484 8.77936V11.9736C12.6484 12.3391 12.352 12.6354 11.9866 12.6354C11.6211 12.6354 11.3247 12.3386 11.3247 11.9736V8.77936C11.5408 8.81182 11.7616 8.82899 11.9866 8.82899C12.2115 8.82899 12.4327 8.81229 12.6484 8.77936Z" fill="#F57E20"/>
<path id="Vector_2" fill-rule="evenodd" clip-rule="evenodd" d="M11.3247 8.77934C9.20186 8.45978 7.57205 6.6259 7.57205 4.41449C7.57205 1.97812 9.55018 0 11.9865 0C14.4229 0 16.401 1.97812 16.401 4.41449C16.401 6.6259 14.7712 8.45978 12.6484 8.77934C12.4327 8.81181 12.2115 8.82897 11.9865 8.82897C11.7616 8.82897 11.5408 8.81227 11.3247 8.77934ZM8.89621 4.41449C8.89621 6.12036 10.2811 7.50528 11.9865 7.50528C13.6919 7.50528 15.0773 6.12036 15.0773 4.41449C15.0773 2.70862 13.6924 1.3237 11.9865 1.3237C10.2807 1.3237 8.89621 2.70862 8.89621 4.41449Z" fill="#434F6A"/>
<path id="Vector_3" fill-rule="evenodd" clip-rule="evenodd" d="M11.9865 3.1488C12.685 3.1488 13.2523 3.71604 13.2523 4.41452C13.2523 5.11301 12.685 5.68025 11.9865 5.68025C11.2881 5.68025 10.7208 5.11301 10.7208 4.41452C10.7208 3.71604 11.2881 3.1488 11.9865 3.1488Z" fill="#A4B8C4"/>
<path id="Vector_4" fill-rule="evenodd" clip-rule="evenodd" d="M4.39963 10.8029C5.09812 10.8029 5.66535 11.3701 5.66535 12.0686C5.66535 12.7671 5.09812 13.3344 4.39963 13.3344C3.70114 13.3344 3.13391 12.7671 3.13391 12.0686C3.13391 11.3701 3.70114 10.8029 4.39963 10.8029Z" fill="#F57E20"/>
<path id="Vector_5" fill-rule="evenodd" clip-rule="evenodd" d="M14.8514 20.8828L12.6108 18.6273C12.352 18.3666 12.3534 17.945 12.6141 17.6862C12.8747 17.4274 13.2963 17.4288 13.5551 17.6895L15.145 19.2901V19.5623C15.145 20.0345 15.0398 20.482 14.8514 20.8828Z" fill="#F57E20"/>
<path id="Vector_6" fill-rule="evenodd" clip-rule="evenodd" d="M21.9291 14.0542L20.1834 12.2968C19.9245 12.0362 19.9259 11.6146 20.1866 11.3558C20.4473 11.097 20.8689 11.0984 21.1277 11.359L22.584 12.8251C22.5219 13.0565 22.4337 13.2773 22.3224 13.4842C22.2125 13.6892 22.0803 13.8803 21.9291 14.0542Z" fill="#F57E20"/>
<path id="Vector_7" fill-rule="evenodd" clip-rule="evenodd" d="M9.63412 17.5935L11.321 19.2915C11.5798 19.5521 11.5784 19.9737 11.3177 20.2325C11.0571 20.4913 10.6355 20.4899 10.3767 20.2293L9.01123 18.855C9.11605 18.4042 9.3192 17.9914 9.59655 17.6394C9.60861 17.6241 9.62113 17.6083 9.63366 17.593L9.63412 17.5935Z" fill="#A4B8C4"/>
<path id="Vector_8" fill-rule="evenodd" clip-rule="evenodd" d="M16.7535 10.7315L18.951 12.9439C19.2098 13.2045 19.2084 13.6261 18.9478 13.8849C18.6871 14.1437 18.2655 14.1423 18.0067 13.8817L16.4757 12.3404V12.0172C16.4757 11.5585 16.5749 11.1234 16.7535 10.7315Z" fill="#A4B8C4"/>
<path id="Vector_9" fill-rule="evenodd" clip-rule="evenodd" d="M16.4762 16.4548V19.5619C16.4762 22.0131 14.4892 23.9995 12.038 23.9995C9.58684 23.9995 7.5999 22.0126 7.5999 19.5619C7.5999 17.1107 9.58684 15.1237 12.038 15.1237H15.1451V12.0167C15.1451 9.56549 17.132 7.57855 19.5827 7.57855C22.0339 7.57855 24.0209 9.56549 24.0209 12.0167C24.0209 14.4679 22.0339 16.4548 19.5827 16.4548H16.4757H16.4762ZM9.01172 18.855C9.00662 18.8777 9.00151 18.9005 8.99641 18.9237C8.95328 19.1296 8.93102 19.3429 8.93102 19.5619C8.93102 21.2779 10.322 22.6689 12.038 22.6689C13.2323 22.6689 14.2694 21.995 14.7893 21.0071C14.8107 20.9663 14.8315 20.9245 14.8515 20.8823C15.0398 20.4816 15.1451 20.034 15.1451 19.5619V16.4548H12.038C11.0692 16.4548 10.2042 16.8982 9.63414 17.593C9.62162 17.6083 9.6091 17.6236 9.59704 17.6394C9.31968 17.991 9.117 18.4042 9.01172 18.855ZM16.4762 12.0167V15.1237H19.5832C20.5196 15.1237 21.3596 14.7095 21.9291 14.0537C22.0803 13.8798 22.2125 13.6887 22.3224 13.4837C22.4333 13.2768 22.5219 13.0561 22.584 12.8246C22.6531 12.5668 22.6902 12.2959 22.6902 12.0167C22.6902 11.9995 22.6902 11.9824 22.6902 11.9652C22.6629 10.2728 21.2826 8.90967 19.5837 8.90967C18.375 8.90967 17.3273 9.60027 16.8134 10.6081C16.7925 10.6485 16.773 10.6897 16.754 10.731C16.5754 11.1229 16.4762 11.558 16.4762 12.0167Z" fill="#434F6A"/>
<path id="Vector_10" fill-rule="evenodd" clip-rule="evenodd" d="M6.89862 16.4706L4.46504 16.4725C3.28095 16.4725 2.14509 16.0022 1.30746 15.1646C0.470297 14.3274 0 13.1916 0 12.007C0 9.54095 1.999 7.54196 4.46504 7.54196L6.94268 7.5401C7.31233 7.5401 7.61241 7.84018 7.61241 8.20937C7.61241 8.57856 7.31233 8.8791 6.94268 8.8791L4.46504 8.88096C2.7383 8.88096 1.339 10.2807 1.339 12.007C1.339 12.8363 1.6683 13.6312 2.25455 14.2175C2.8408 14.8037 3.63622 15.133 4.46504 15.133L6.99092 15.1312C6.99973 15.1312 7.00901 15.1312 7.01782 15.1316H10.0516C9.05299 15.4753 8.58594 16.0231 8.25988 16.4502L6.89862 16.4734V16.4702V16.4706Z" fill="#434F6A"/>
</g>
<path id="Vector_11" fill-rule="evenodd" clip-rule="evenodd" d="M33.861 13.7497L33.8638 13.7506C34.0781 13.8703 34.226 14.0809 34.2659 14.323C34.3058 14.5651 34.2339 14.8123 34.0697 14.9946C33.7659 15.3276 33.4046 15.6142 32.9849 15.8535C32.2818 16.2542 31.5021 16.4546 30.6464 16.4546C29.3218 16.4546 28.2207 16.0279 27.3413 15.1759C26.4615 14.323 26.0209 13.2646 26.0209 11.9993C26.0209 10.7341 26.4615 9.67565 27.3413 8.82271C28.2202 7.97071 29.3218 7.54401 30.6464 7.54401C31.5142 7.54401 32.2934 7.74483 32.9854 8.14556C33.4051 8.38859 33.7604 8.68311 34.0512 9.02772C34.2047 9.21185 34.2678 9.45441 34.2237 9.68956C34.1801 9.92378 34.0345 10.1265 33.8267 10.2424C33.8193 10.2475 33.8114 10.2517 33.8035 10.2563C33.4802 10.4354 33.0749 10.3579 32.8402 10.0722C32.6556 9.84865 32.4279 9.65802 32.157 9.49987C31.7127 9.24014 31.209 9.11074 30.6464 9.11074C29.8023 9.11074 29.0959 9.38624 28.5277 9.93863C27.96 10.4906 27.6767 11.1774 27.6767 11.9993C27.6767 12.8212 27.96 13.4918 28.5277 14.0438C29.0959 14.5961 29.8023 14.8716 30.6464 14.8716C31.2095 14.8716 31.7159 14.7446 32.1663 14.4899C32.4413 14.3346 32.676 14.1458 32.8708 13.9236C33.1185 13.6389 33.5313 13.5665 33.861 13.7492V13.7497ZM42.9989 8.58896C42.9989 8.13165 43.3695 7.76107 43.8268 7.76107C44.0462 7.76107 44.2567 7.84826 44.4121 8.00364C44.5675 8.15901 44.6547 8.36958 44.6547 8.58896V15.4106C44.6547 15.63 44.5675 15.8405 44.4121 15.9959C44.2567 16.1513 44.0462 16.2385 43.8268 16.2385C43.3695 16.2385 42.9989 15.8679 42.9989 15.4106V14.9644C42.2415 15.9574 41.1771 16.4551 39.8042 16.4551C38.5723 16.4551 37.5223 16.0228 36.654 15.1592C35.7858 14.2951 35.3517 13.2423 35.3517 11.9998C35.3517 10.7572 35.7858 9.7044 36.654 8.84034C37.5223 7.97627 38.5723 7.54447 39.8042 7.54447C41.1766 7.54447 42.241 8.04213 42.9989 9.03514V8.58849V8.58896ZM39.9948 14.9055C40.8505 14.9055 41.5653 14.6272 42.1395 14.0693C42.7127 13.5122 42.9989 12.8221 42.9989 11.9998C42.9989 11.1774 42.7127 10.4878 42.1395 9.93028C41.5653 9.37232 40.8501 9.09404 39.9948 9.09404C39.1396 9.09404 38.4415 9.37232 37.8674 9.93028C37.2941 10.4873 37.0079 11.1774 37.0079 11.9993C37.0079 12.8212 37.2941 13.5113 37.8674 14.0688C38.4415 14.6268 39.1507 14.905 39.9948 14.905V14.9055ZM52.8329 8.49249C52.8329 8.03007 53.2077 7.65532 53.6701 7.65532C54.1325 7.65532 54.5073 8.03007 54.5073 8.49249V15.399C54.5073 15.8614 54.1325 16.2362 53.6701 16.2362C53.2077 16.2362 52.8329 15.8614 52.8329 15.399V15.187C52.2008 16.0316 51.2806 16.4555 50.0705 16.4555C49.0205 16.4555 48.1796 16.135 47.5474 15.4973C46.9152 14.86 46.5971 13.9974 46.5971 12.907V8.49295C46.5971 8.03054 46.9718 7.65578 47.4342 7.65578C47.8967 7.65578 48.2714 8.03054 48.2714 8.49295V12.823C48.2714 13.4849 48.4546 13.9988 48.8266 14.3624C49.199 14.7265 49.7134 14.9055 50.3678 14.9055C51.1048 14.9055 51.7008 14.6861 52.1544 14.2441C52.6094 13.8007 52.8325 13.1185 52.8325 12.1987V8.49295L52.8329 8.49249ZM56.701 13.9978L56.7089 13.9918C57.0475 13.8049 57.4719 13.8888 57.7135 14.1908C57.7135 14.1908 57.7135 14.1908 57.7135 14.1912C57.8383 14.3494 57.9951 14.4853 58.1829 14.6003C58.5526 14.8267 58.995 14.9389 59.5103 14.9389C59.9913 14.9389 60.3883 14.8517 60.7014 14.6741C60.9996 14.5048 61.1475 14.2404 61.1475 13.8819C61.1475 13.586 60.9908 13.3513 60.6833 13.1727C60.3544 12.9816 59.9569 12.8291 59.4922 12.7145C59.0173 12.5976 58.5428 12.4608 58.0679 12.305C57.5827 12.1454 57.1686 11.8834 56.8253 11.5188C56.478 11.1501 56.3031 10.6779 56.3031 10.1014C56.3031 9.35609 56.6036 8.74248 57.2052 8.26058C57.8003 7.78426 58.5451 7.54447 59.4407 7.54447C60.1582 7.54447 60.796 7.70077 61.3544 8.01198C61.6294 8.16504 61.8706 8.34778 62.0789 8.55927C62.2509 8.73413 62.3307 8.97994 62.2945 9.22205C62.2588 9.46137 62.1136 9.67055 61.9021 9.78835L61.8919 9.79577C61.5752 9.96692 61.1819 9.89456 60.9467 9.62138C60.6118 9.23411 60.1086 9.04395 59.4403 9.04395C59.0298 9.04395 58.6796 9.13625 58.3911 9.32316C58.1143 9.50265 57.9756 9.75635 57.9756 10.0843C57.9756 10.3802 58.1323 10.6149 58.4398 10.7934C58.7687 10.9845 59.1662 11.1371 59.6309 11.2517C60.1054 11.3685 60.5798 11.5021 61.0543 11.6528C61.5399 11.8068 61.9546 12.0689 62.2978 12.4395C62.6447 12.8137 62.8195 13.2938 62.8195 13.8814C62.8195 14.6615 62.5069 15.2867 61.8813 15.757C61.264 16.2213 60.4736 16.4551 59.5089 16.4551C58.6518 16.4551 57.9185 16.2733 57.3082 15.9115C56.9835 15.719 56.7085 15.4931 56.4826 15.2339C56.323 15.0488 56.2549 14.8021 56.298 14.5618C56.3407 14.323 56.4882 14.1161 56.6997 13.9978H56.701ZM71.303 8.58942C71.303 8.13211 71.6736 7.76153 72.1309 7.76153C72.3503 7.76153 72.5613 7.84873 72.7162 8.0041C72.8716 8.15947 72.9588 8.37004 72.9588 8.58942V15.411C72.9588 15.6304 72.8716 15.841 72.7162 15.9964C72.5608 16.1517 72.3503 16.2389 72.1309 16.2389C71.6736 16.2389 71.303 15.8684 71.303 15.411V14.9649C70.5456 15.9579 69.4812 16.4555 68.1083 16.4555C66.8764 16.4555 65.8264 16.0233 64.9581 15.1597C64.0899 14.2956 63.6558 13.2428 63.6558 12.0002C63.6558 10.7577 64.0899 9.70487 64.9581 8.8408C65.8264 7.97674 66.8764 7.54493 68.1083 7.54493C69.4807 7.54493 70.5451 8.0426 71.303 9.0356V8.58896V8.58942ZM68.2989 14.906C69.1546 14.906 69.8694 14.6277 70.4436 14.0697C71.0168 13.5127 71.303 12.8226 71.303 12.0002C71.303 11.1779 71.0168 10.4882 70.4436 9.93074C69.8694 9.37279 69.1546 9.0945 68.2989 9.0945C67.4432 9.0945 66.7456 9.37279 66.1715 9.93074C65.5982 10.4878 65.312 11.1779 65.312 11.9998C65.312 12.8216 65.5982 13.5118 66.1715 14.0693C66.7456 14.6272 67.4548 14.9055 68.2989 14.9055V14.906Z" fill="#434F6A"/>
</g>
</g>
<defs>
<clipPath id="clip0_1_2465">
<rect width="72.9588" height="23.9995" fill="white"/>
</clipPath>
</defs>
</svg>
