<svg width="20" height="20" viewBox="0 0 20 20" fill="none" xmlns="http://www.w3.org/2000/svg">
<g id="Nusantics Logo">
<g id="Type=Brand Mark, State=Default">
<path id="Vector" d="M0.843469 13.3592C0.843469 11.8246 0.817506 10.29 0.848667 8.75533C0.89541 6.6202 1.65366 4.73142 3.07671 3.1198C4.48417 1.52359 6.25519 0.512478 8.36899 0.168599C11.2307 -0.298462 13.7859 0.404698 15.9724 2.28834C17.5876 3.67925 18.5588 5.44998 18.9276 7.53379C19.0107 8.01111 19.0522 8.49357 19.0522 8.98116C19.0522 10.2746 19.0522 11.568 19.0522 12.8665C19.0522 13.8622 18.4082 14.6475 17.4474 14.8528C16.2269 15.1094 15.048 14.1855 15.0428 12.9537C15.0376 11.6552 15.0428 10.3516 15.0428 9.05303C15.0428 7.89307 14.7052 6.83063 13.9573 5.93244C12.5914 4.2849 10.8152 3.63306 8.72215 4.15145C6.6499 4.6647 5.39826 6.04023 4.94122 8.10351C4.86851 8.42172 4.85294 8.74506 4.85294 9.07354C4.85294 12.0555 4.85294 15.0375 4.85294 18.0195C4.85294 19.0307 4.14141 19.8211 3.09231 19.9802C2.17304 20.1188 1.2226 19.5182 0.936949 18.6149C0.869433 18.3942 0.83827 18.1735 0.83827 17.9426C0.83827 16.4131 0.83827 14.8887 0.83827 13.3592C0.83827 13.3592 0.838275 13.3592 0.843469 13.3592Z" fill="#5A5A5C"/>
<path id="Vector_2" d="M19.0573 18.0053C19.0573 19.0934 18.164 19.9813 17.0578 19.9916C15.9516 19.9967 15.0427 19.1037 15.0427 18.0053C15.0427 16.9172 15.9412 16.0344 17.0526 16.0293C18.1537 16.0293 19.0573 16.9172 19.0625 18.0053H19.0573Z" fill="#EF7E22"/>
</g>
</g>
</svg>
