<svg width="164" height="20" viewBox="0 0 164 20" fill="none" xmlns="http://www.w3.org/2000/svg">
<g id="Nusantics Logo">
<g id="Type=Primary Logo, State=White">
<path id="Vector" d="M102.033 13.344C102.033 14.8889 102.033 16.4389 102.033 17.9838C102.033 19.0462 101.249 19.8931 100.189 19.9855C99.1663 20.0727 98.2418 19.3696 98.0548 18.3533C98.0237 18.1993 98.0237 18.0351 98.0237 17.876C98.0237 14.9248 98.0237 11.9736 98.0237 9.02237C98.0237 6.66141 96.3825 4.62893 94.0454 4.10542C91.2409 3.47411 88.4155 5.32695 87.9221 8.12418C87.8702 8.40647 87.8442 8.6939 87.8442 8.98132C87.8442 11.9685 87.8442 14.9556 87.8442 17.9479C87.8442 18.923 87.2418 19.7032 86.3069 19.9341C85.0657 20.2421 83.8296 19.3131 83.8244 18.0505C83.814 14.971 83.7932 11.8915 83.8296 8.81194C83.8607 6.53309 84.7073 4.54167 86.2861 2.87873C87.7351 1.34924 89.5166 0.415114 91.6148 0.132825C94.3362 -0.236717 96.772 0.451041 98.865 2.21663C100.594 3.67427 101.612 5.54253 101.95 7.76491C102.007 8.13959 102.038 8.51939 102.033 8.8992C102.033 10.3825 102.033 11.8709 102.033 13.3542V13.344Z" fill="white"/>
<path id="Vector_2" d="M22.4985 6.78788C22.4985 5.1968 22.4985 3.61084 22.4985 2.01976C22.4985 0.926528 23.3502 0.0488631 24.4201 0.0283329C25.5627 0.00780282 26.456 0.823881 26.5027 1.94277C26.5131 2.2148 26.5027 2.48168 26.5027 2.75371C26.5027 5.52527 26.5027 8.30197 26.5027 11.0735C26.5027 13.414 28.2997 15.5337 30.6316 15.9443C33.4569 16.4422 36.0797 14.6612 36.6043 11.8896C36.6562 11.6073 36.6822 11.3199 36.6822 11.0325C36.6822 8.04022 36.6822 5.04282 36.6822 2.05055C36.6822 1.03944 37.3314 0.259301 38.3286 0.0642644C39.5179 -0.166699 40.6709 0.746893 40.6865 1.94277C40.6969 2.46629 40.6865 2.98467 40.6865 3.50819C40.6865 6.04366 40.6865 8.574 40.6865 11.1095C40.6865 15.2925 37.5443 19.0444 33.3687 19.8142C30.3771 20.3634 27.718 19.6397 25.4536 17.638C23.8332 16.2009 22.8828 14.3892 22.5712 12.2592C22.5089 11.8383 22.4881 11.4174 22.4881 10.9966C22.4881 9.59537 22.4881 8.19932 22.4881 6.79814L22.4985 6.78788Z" fill="white"/>
<path id="Vector_3" d="M51.2191 0.0283966C53.0992 0.0283966 54.8598 0.464656 56.4595 1.4655C56.8801 1.72726 57.2852 2.01983 57.5812 2.4253C58.5628 3.75462 57.5345 5.24305 56.3763 5.40216C55.9712 5.45862 55.5817 5.40729 55.2597 5.15579C54.5014 4.56042 53.6133 4.2268 52.7044 3.95478C51.6242 3.63143 50.5387 3.63144 49.4532 3.94452C49.0637 4.05744 48.7002 4.23194 48.3938 4.50397C47.5784 5.23278 47.6615 6.48513 48.5651 7.14209C49.0533 7.49111 49.6195 7.65021 50.1907 7.80932C51.1152 8.06594 52.0656 8.18399 52.9953 8.39956C54.0132 8.63565 55.0156 8.90254 55.9504 9.39013C57.4358 10.1703 58.2356 11.397 58.4382 13.024C58.5576 13.9838 58.542 14.9333 58.22 15.8571C57.7422 17.207 56.8022 18.1719 55.5765 18.8853C54.4079 19.5628 53.1304 19.9016 51.7852 19.9734C50.0973 20.0607 48.4457 19.9016 46.8772 19.2343C45.9735 18.8494 45.1529 18.3259 44.457 17.6433C43.5689 16.7759 43.6365 15.426 44.5817 14.7126C45.2309 14.2199 46.1553 14.2199 46.7993 14.7126C47.4849 15.2361 48.1912 15.7442 49.0222 15.9957C50.5024 16.4474 51.9773 16.4936 53.416 15.8058C53.7535 15.6416 54.0496 15.4209 54.2989 15.1437C54.8546 14.5329 54.6832 13.5218 54.1535 12.9983C53.7172 12.5672 53.1719 12.3157 52.5954 12.1206C51.7904 11.8486 50.9542 11.7254 50.1232 11.6023C48.7417 11.3969 47.4122 11.0479 46.2436 10.2473C44.8933 9.32341 44.1974 8.03001 44.0623 6.42866C43.974 5.39703 44.0883 4.39619 44.5505 3.4518C45.1997 2.13787 46.2696 1.27047 47.6095 0.705895C48.7625 0.223437 49.9778 0.0232691 51.2295 0.0335342L51.2191 0.0283966Z" fill="white"/>
<path id="Vector_4" d="M65.8909 14.9093C65.8909 15.9717 65.9013 17.0341 65.8909 18.0914C65.8857 19.0615 65.0911 19.8724 64.0732 19.9853C63.1072 20.0931 62.1619 19.4208 61.9386 18.4661C61.8971 18.2865 61.8867 18.1017 61.8867 17.9169C61.8867 14.9452 61.8867 11.9786 61.8867 9.00684C61.8971 4.71091 64.9509 1.04116 69.22 0.189157C74.0761 -0.775759 78.8853 2.35508 79.9032 7.13347C80.0331 7.75451 80.1006 8.38068 80.1006 9.01198C80.1006 11.9837 80.1006 14.9503 80.1006 17.9221C80.1006 18.9229 79.5034 19.6979 78.5685 19.9289C77.3169 20.2368 76.0912 19.2924 76.0912 18.0196C76.0912 15.0324 76.0912 12.0453 76.0912 9.05305C76.0912 6.48165 74.2267 4.37218 71.6507 4.0129C68.976 3.64336 66.3791 5.55266 65.9688 8.18051C65.865 8.84261 65.9117 9.5047 65.9013 10.1617C65.8961 10.4132 65.9013 10.6647 65.9013 10.9161C65.7819 10.9213 65.6625 10.9162 65.5482 10.9418C64.1927 11.1984 63.4863 12.6048 64.1044 13.8212C64.4731 14.5397 65.0963 14.8631 65.8961 14.8939L65.8909 14.9093Z" fill="white"/>
<path id="Vector_5" d="M156.28 19.9991C154.997 19.9888 153.642 19.804 152.354 19.2857C151.627 18.9982 150.957 18.5928 150.344 18.1052C150.048 17.8691 149.757 17.6433 149.534 17.3404C148.775 16.3139 149.087 14.9127 150.308 14.4149C150.978 14.1429 151.627 14.2814 152.208 14.7434C153.086 15.4363 154.026 16.0162 155.169 16.2061C155.943 16.3344 156.716 16.3601 157.485 16.2267C158.202 16.1035 158.867 15.8212 159.433 15.3439C160.118 14.7639 160.056 13.7271 159.589 13.1523C159.121 12.5826 158.472 12.3105 157.797 12.0898C157.106 11.864 156.394 11.7408 155.673 11.6331C154.301 11.4278 152.967 11.0993 151.788 10.3397C150.604 9.5749 149.84 8.51248 149.549 7.1267C149.409 6.48 149.394 5.82303 149.456 5.18146C149.627 3.46206 150.515 2.15327 151.975 1.22429C152.967 0.592984 154.073 0.264495 155.242 0.110519C155.849 0.0283986 156.462 0.0129985 157.075 0.0437937C158.243 0.105384 159.381 0.326079 160.461 0.777742C161.084 1.03437 161.676 1.34232 162.217 1.74266C162.694 2.09681 163.131 2.48174 163.307 3.08738C163.427 3.49285 163.411 3.88806 163.26 4.27813C162.938 5.08394 162.139 5.56126 161.271 5.44835C161.017 5.41755 160.793 5.29438 160.591 5.13527C159.651 4.41672 158.56 4.03178 157.412 3.80595C156.54 3.63144 155.667 3.69303 154.816 3.94452C154.244 4.11389 153.751 4.40132 153.439 4.92484C153.221 5.28925 153.206 5.68957 153.278 6.08478C153.429 6.90085 154.047 7.27554 154.753 7.54243C155.543 7.84012 156.369 8.01975 157.2 8.17372C158.327 8.38416 159.443 8.64079 160.513 9.06166C161.173 9.31828 161.785 9.66217 162.315 10.1395C163.099 10.8478 163.536 11.7306 163.702 12.7571C163.79 13.3011 163.847 13.84 163.816 14.3892C163.743 15.4927 163.401 16.4936 162.689 17.3712C161.884 18.3567 160.856 19.0085 159.666 19.4448C158.882 19.7373 158.067 19.8964 157.231 19.9631C156.945 19.9888 156.659 19.9734 156.275 19.9939L156.28 19.9991Z" fill="white"/>
<path id="Vector_6" d="M0.0101403 13.3592C0.0101403 11.8246 -0.0158226 10.29 0.0153389 8.75533C0.0620813 6.6202 0.820335 4.73142 2.24338 3.1198C3.65085 1.52359 5.42186 0.512478 7.53566 0.168599C10.3973 -0.298462 12.9526 0.404698 15.1391 2.28834C16.7543 3.67925 17.7255 5.44998 18.0943 7.53379C18.1773 8.01111 18.2189 8.49357 18.2189 8.98116C18.2189 10.2746 18.2189 11.568 18.2189 12.8665C18.2189 13.8622 17.5749 14.6475 16.6141 14.8528C15.3936 15.1094 14.2146 14.1855 14.2094 12.9537C14.2043 11.6552 14.2094 10.3516 14.2094 9.05303C14.2094 7.89307 13.8719 6.83063 13.124 5.93244C11.7581 4.2849 9.98184 3.63306 7.88882 4.15145C5.81657 4.6647 4.56493 6.04023 4.1079 8.10351C4.03519 8.42172 4.01961 8.74506 4.01961 9.07354C4.01961 12.0555 4.01961 15.0375 4.01961 18.0195C4.01961 19.0307 3.30808 19.8211 2.25898 19.9802C1.33971 20.1188 0.389269 19.5182 0.103621 18.6149C0.0361045 18.3942 0.00494161 18.1735 0.00494161 17.9426C0.00494161 16.4131 0.00494161 14.8887 0.00494161 13.3592C0.00494161 13.3592 0.00494668 13.3592 0.0101403 13.3592Z" fill="white"/>
<path id="Vector_7" d="M139.863 19.9888C137.173 19.8913 134.763 19.0752 132.8 17.2018C131.362 15.8314 130.52 14.1274 130.183 12.1873C129.892 10.5449 129.876 8.89737 130.312 7.28063C131.299 3.64679 133.688 1.35255 137.345 0.377364C139.749 -0.264202 142.133 -0.0896869 144.434 0.916289C144.564 0.972747 144.688 1.03946 144.818 1.10105C145.95 1.61431 146.075 2.9077 145.639 3.68272C145.348 4.2011 144.969 4.61684 144.33 4.69896C143.857 4.76055 143.405 4.66303 142.969 4.47313C141.26 3.72378 139.51 3.64679 137.76 4.27295C135.901 4.94018 134.789 6.30032 134.363 8.18396C133.989 9.8315 134.062 11.4636 134.763 13.0291C135.49 14.6509 136.778 15.6056 138.518 15.97C139.848 16.2472 141.172 16.2266 142.465 15.7647C142.621 15.7082 142.772 15.6364 142.922 15.5645C143.307 15.3798 143.707 15.2874 144.133 15.3233C144.938 15.39 145.431 15.8725 145.737 16.5551C146.028 17.2069 145.945 17.8382 145.509 18.408C145.348 18.6184 145.135 18.7672 144.901 18.8853C143.592 19.5268 142.211 19.8861 140.757 19.9734C140.606 19.9836 140.461 19.9888 140.31 19.9888C140.159 19.9888 140.014 19.9888 139.863 19.9888Z" fill="white"/>
<path id="Vector_8" d="M126.079 9.99433C126.079 12.6684 126.079 15.3476 126.079 18.0216C126.079 18.8839 125.56 19.5973 124.734 19.8796C123.898 20.1619 122.989 19.9104 122.465 19.2483C122.184 18.889 122.07 18.4784 122.07 18.0267C122.07 16.0815 122.07 14.1363 122.07 12.1911C122.07 8.77792 122.07 5.36478 122.07 1.95678C122.07 1.02266 122.714 0.242511 123.612 0.073137C124.63 -0.121899 125.565 0.340029 125.934 1.21256C126.043 1.46405 126.079 1.73095 126.079 2.00297C126.079 4.66676 126.079 7.33055 126.079 9.99433Z" fill="white"/>
<path id="Vector_9" d="M113.49 3.98877C113.49 8.6799 113.49 13.3762 113.49 18.0673C113.49 18.9758 112.794 19.7867 111.885 19.9561C110.857 20.146 109.943 19.6738 109.6 18.7705C109.512 18.5446 109.481 18.3085 109.481 18.0673C109.481 13.4583 109.481 8.85441 109.481 4.24539C109.481 4.15814 109.481 4.07602 109.481 3.98877C109.725 3.98877 109.964 3.97851 110.208 3.97851C111.304 3.97851 112.394 3.97851 113.49 3.98365V3.98877Z" fill="white"/>
<path id="Vector_10" d="M113.49 3.9881C112.395 3.9881 111.304 3.98298 110.208 3.98298C109.964 3.98298 109.725 3.98298 109.481 3.99324C108.157 3.99324 106.832 3.99324 105.508 3.9881C105.357 3.9881 105.212 3.98298 105.061 3.96245C104.147 3.82387 103.321 2.96161 103.472 1.75033C103.597 0.718689 104.412 0.0360641 105.466 0.0360641C109.502 0.0360641 113.542 0.0360641 117.578 0.0360641C118.471 0.0360641 119.26 0.682764 119.463 1.56043C119.681 2.51508 119.255 3.42866 118.414 3.8136C118.128 3.94705 117.822 3.9881 117.505 3.9881C116.243 3.9881 114.981 3.9881 113.719 3.9881C113.646 3.9881 113.568 3.98811 113.496 3.99324L113.49 3.9881Z" fill="white"/>
<path id="Vector_11" d="M65.8909 14.9042C65.0911 14.8734 64.4679 14.55 64.0991 13.8315C63.4811 12.6099 64.1874 11.2088 65.543 10.9521C65.6572 10.9316 65.7767 10.9367 65.8961 10.9265C67.5892 10.9265 69.2771 10.9265 70.9703 10.9316C71.0689 10.9316 71.1676 10.9316 71.2663 10.947C72.1544 11.0856 72.8348 11.7887 72.9439 12.6766C73.0581 13.5851 72.5958 14.4063 71.7856 14.7399C71.5052 14.8529 71.2092 14.8836 70.9079 14.8836C69.3083 14.8836 67.7139 14.8836 66.1143 14.8836C66.0415 14.8836 65.9636 14.8682 65.8909 14.899V14.9042Z" fill="white"/>
<path id="Vector_12" d="M18.224 18.0053C18.224 19.0934 17.3307 19.9813 16.2245 19.9916C15.1182 19.9967 14.2094 19.1037 14.2094 18.0053C14.2094 16.9172 15.1078 16.0344 16.2193 16.0293C17.3203 16.0293 18.224 16.9172 18.2292 18.0053H18.224Z" fill="white"/>
</g>
</g>
</svg>
