<svg viewBox="0 0 36 36" fill="none" xmlns="http://www.w3.org/2000/svg">
  <rect width="36" height="36" rx="7.2" fill="#F57E20"/>
  <path transform="translate(8.1, 7.23)" d="M0.0109515 14.3968C0.0109515 12.7394 -0.0170884 11.082 0.0165661 9.42458C0.0670478 7.11863 0.885962 5.07875 2.42285 3.33821C3.94291 1.6143 5.85561 0.522298 8.13851 0.150907C11.2291 -0.353518 13.9888 0.405894 16.3502 2.44022C18.0946 3.94241 19.1435 5.8548 19.5418 8.10531C19.6315 8.62082 19.6764 9.14188 19.6764 9.66848C19.6764 11.0653 19.6764 12.4622 19.6764 13.8646C19.6764 14.94 18.9809 15.7881 17.9432 16.0098C16.6251 16.287 15.3518 15.2892 15.3462 13.9589C15.3406 12.5564 15.3462 11.1485 15.3462 9.74609C15.3462 8.49334 14.9816 7.3459 14.1739 6.37585C12.6987 4.59651 10.7804 3.89253 8.51992 4.45239C6.2819 5.0067 4.93013 6.49227 4.43653 8.72061C4.358 9.06428 4.34118 9.41349 4.34118 9.76825C4.34118 12.9888 4.34118 16.2094 4.34118 19.4299C4.34118 20.5219 3.57273 21.3756 2.4397 21.5474C1.44689 21.6971 0.420411 21.0485 0.111911 20.0729C0.0389928 19.8346 0.00533694 19.5962 0.00533694 19.3468C0.00533694 17.6949 0.00533694 16.0486 0.00533694 14.3968C0.00533694 14.3968 0.00534242 14.3968 0.0109515 14.3968Z" fill="white"/>
  <path transform="translate(23.45, 24.51)" d="M4.33581 2.13411C4.33581 3.30925 3.37106 4.26821 2.17633 4.2793C0.981593 4.28484 0 3.32034 0 2.13411C0 0.958966 0.970369 0.00554313 2.17071 0C3.35984 0 4.33582 0.958966 4.34143 2.13411H4.33581Z" fill="white"/>
</svg>
