<svg preserveAspectRatio="none" width="100%" height="100%" overflow="visible" style="display: block;" viewBox="0 0 14.3341 19.5008" fill="none" xmlns="http://www.w3.org/2000/svg">
<path id="Vector" d="M7.2166 0C9.05279 0 10.7724 0.426074 12.3346 1.40355C12.7455 1.6592 13.1411 1.94494 13.4302 2.34094C14.3889 3.63923 13.3846 5.09291 12.2535 5.2483C11.8578 5.30344 11.4774 5.25331 11.1629 5.00769C10.4223 4.42621 9.55494 4.10039 8.66728 3.83471C7.61223 3.51891 6.55211 3.51892 5.49199 3.82469C5.11156 3.93497 4.75654 4.1054 4.45727 4.37108C3.66092 5.08288 3.74205 6.30599 4.62464 6.94761C5.10144 7.28848 5.65433 7.44387 6.21229 7.59926C7.11516 7.84989 8.04341 7.96518 8.95136 8.17572C9.94554 8.4063 10.9245 8.66696 11.8375 9.14317C13.2882 9.9051 14.0693 11.1031 14.2672 12.6922C14.3838 13.6295 14.3686 14.5569 14.0541 15.4592C13.5875 16.7775 12.6694 17.7199 11.4723 18.4167C10.331 19.0783 9.08327 19.4092 7.76953 19.4794C6.12102 19.5646 4.50798 19.4092 2.97613 18.7575C2.09354 18.3816 1.29209 17.8703 0.6124 17.2036C-0.254971 16.3565 -0.188973 15.0381 0.734193 14.3414C1.36824 13.8601 2.27106 13.8601 2.90003 14.3414C3.56958 14.8526 4.25943 15.3489 5.07101 15.5945C6.51663 16.0356 7.95715 16.0807 9.36219 15.409C9.69189 15.2486 9.98105 15.0331 10.2245 14.7624C10.7673 14.1659 10.5999 13.1784 10.0825 12.6671C9.65641 12.246 9.12381 12.0004 8.56078 11.8099C7.77457 11.5443 6.95792 11.4239 6.14634 11.3036C4.7971 11.1031 3.49859 10.7623 2.35732 9.98029C1.03851 9.07801 0.35884 7.8148 0.226959 6.25084C0.140729 5.24329 0.252291 4.26582 0.703729 3.34348C1.33777 2.06023 2.38268 1.21308 3.69135 0.66168C4.81741 0.190486 6.00432 -0.00500781 7.22675 0.0050176L7.2166 0Z" fill="var(--fill-0, #5A5A5C)"/>
</svg>
