<svg preserveAspectRatio="none" width="100%" height="100%" overflow="visible" style="display: block;" viewBox="0 0 8.87551 3.88485" fill="none" xmlns="http://www.w3.org/2000/svg">
<path id="Vector" d="M1.97042 3.88485C1.18928 3.85477 0.580625 3.53897 0.220488 2.83719C-0.38312 1.64417 0.306733 0.275708 1.63061 0.0250727C1.74221 0.00502188 1.85884 0.0100254 1.9755 0C3.62908 0 5.2776 4.89533e-06 6.93119 0.0050176C7.02756 0.0050176 7.12391 0.00501699 7.22028 0.0200551C8.08765 0.155398 8.75218 0.842136 8.8587 1.70933C8.97029 2.59658 8.5188 3.39862 7.72752 3.72445C7.45361 3.83473 7.16452 3.86481 6.87032 3.86481C5.30804 3.86481 3.75084 3.86481 2.18856 3.86481C2.11755 3.86481 2.04143 3.84977 1.97042 3.87984V3.88485Z" fill="var(--fill-0, #EF7E22)"/>
</svg>
