<svg preserveAspectRatio="none" width="100%" height="100%" overflow="visible" style="display: block;" viewBox="0 0 17.778 19.4978" fill="none" xmlns="http://www.w3.org/2000/svg">
<path id="Vector" d="M0.0101236 6.60211C0.0101236 5.04817 0.0101236 3.49924 0.0101236 1.9453C0.0101236 0.877595 0.841994 0.0204208 1.8869 0.00037C3.00281 -0.0196808 3.87526 0.777344 3.92091 1.87011C3.93106 2.13579 3.92091 2.39644 3.92091 2.66211C3.92091 5.36897 3.92091 8.08084 3.92091 10.7877C3.92091 13.0735 5.67592 15.1438 7.9534 15.5448C10.7128 16.031 13.2743 14.2916 13.7866 11.5847C13.8373 11.309 13.8627 11.0283 13.8627 10.7476C13.8627 7.8252 13.8627 4.89778 13.8627 1.97538C13.8627 0.987874 14.4968 0.225945 15.4706 0.0354626C16.6322 -0.190109 17.7583 0.702154 17.7735 1.87011C17.7837 2.38141 17.7735 2.88769 17.7735 3.39898C17.7735 5.87526 17.7735 8.34652 17.7735 10.8228C17.7735 14.9081 14.7047 18.5724 10.6265 19.3243C7.70486 19.8607 5.10783 19.1539 2.89629 17.199C1.31372 15.7954 0.385484 14.0259 0.0811439 11.9456C0.0202758 11.5346 0 11.1236 0 10.7125C0 9.34405 0 7.98059 0 6.61213L0.0101236 6.60211Z" fill="var(--fill-0, #5A5A5C)"/>
</svg>
