<svg preserveAspectRatio="none" width="100%" height="100%" overflow="visible" style="display: block;" viewBox="0 0 17.7935 19.5049" fill="none" xmlns="http://www.w3.org/2000/svg">
<path id="Vector" d="M0.00990353 13.0191C0.00990353 11.5203 -0.0154532 10.0215 0.0149808 8.52272C0.0606319 6.43744 0.801183 4.59276 2.191 3.01877C3.56561 1.45982 5.29528 0.472318 7.35972 0.136467C10.1546 -0.319689 12.6502 0.367054 14.7856 2.20672C16.3631 3.56516 17.3117 5.29454 17.6718 7.3297C17.753 7.79588 17.7935 8.26708 17.7935 8.74328C17.7935 10.0065 17.7935 11.2697 17.7935 12.5379C17.7935 13.5104 17.1646 14.2773 16.2262 14.4778C15.0342 14.7285 13.8828 13.8262 13.8777 12.6231C13.8726 11.3549 13.8777 10.0817 13.8777 8.81347C13.8777 7.6806 13.548 6.64296 12.8176 5.76574C11.4835 4.15666 9.74879 3.52005 7.70464 4.02633C5.68077 4.5276 4.45836 5.87101 4.01199 7.88612C3.94098 8.1969 3.92577 8.5127 3.92577 8.83351C3.92577 11.7459 3.92577 14.6583 3.92577 17.5706C3.92577 18.5582 3.23085 19.3301 2.20624 19.4855C1.30843 19.6208 0.380181 19.0344 0.101202 18.1521C0.0352615 17.9366 0.00482624 17.721 0.00482624 17.4955C0.00482624 16.0017 0.00482624 14.5129 0.00482624 13.0191C0.00482624 13.0191 0.00483119 13.0191 0.00990353 13.0191Z" fill="var(--fill-0, #5A5A5C)"/>
</svg>
