<svg preserveAspectRatio="none" width="100%" height="100%" overflow="visible" style="display: block;" viewBox="0 0 14.3583 19.5038" fill="none" xmlns="http://www.w3.org/2000/svg">
<path id="Vector" d="M6.98991 19.5038C5.73704 19.4937 4.41313 19.3133 3.15519 18.807C2.44506 18.5263 1.79073 18.1303 1.1922 17.6541C0.903073 17.4235 0.619054 17.2029 0.400943 16.9072C-0.339619 15.9046 -0.0352835 14.5362 1.15672 14.0499C1.81105 13.7843 2.44511 13.9196 3.01321 14.3708C3.87044 15.0475 4.78851 15.6139 5.90442 15.7994C6.6602 15.9247 7.41596 15.9497 8.16667 15.8194C8.86665 15.6991 9.51591 15.4234 10.0688 14.9572C10.7383 14.3908 10.6775 13.3782 10.221 12.8168C9.76448 12.2604 9.13046 11.9947 8.47106 11.7792C7.79644 11.5586 7.10148 11.4383 6.39642 11.3331C5.05733 11.1326 3.75374 10.8117 2.60232 10.0698C1.44583 9.32296 0.700226 8.28534 0.416175 6.93191C0.279222 6.30031 0.263977 5.65868 0.324845 5.03209C0.492233 3.35283 1.35959 2.0746 2.78492 1.1673C3.75374 0.550735 4.83416 0.229916 5.97544 0.0795346C6.56891 -0.000668671 7.16746 -0.0157092 7.76599 0.014367C8.90727 0.0745194 10.0181 0.290062 11.0732 0.73118C11.6819 0.981815 12.2601 1.28258 12.7876 1.67357C13.2543 2.01945 13.6803 2.3954 13.8528 2.9869C13.9695 3.3829 13.9542 3.76888 13.8071 4.14985C13.4926 4.93684 12.7115 5.40302 11.8644 5.29274C11.6159 5.26267 11.3978 5.14237 11.2 4.98697C10.2819 4.2852 9.2167 3.90925 8.09571 3.68869C7.24355 3.51825 6.3914 3.5784 5.55954 3.82402C5.00158 3.98944 4.51969 4.27016 4.21535 4.78145C4.00232 5.13735 3.98707 5.52833 4.05808 5.91431C4.20518 6.71133 4.80877 7.07727 5.49861 7.33793C6.26961 7.62867 7.07615 7.80411 7.88772 7.95449C8.98842 8.16001 10.079 8.41065 11.1239 8.82169C11.7681 9.07233 12.3666 9.40818 12.884 9.87436C13.6499 10.5661 14.076 11.4283 14.2383 12.4308C14.3245 12.9622 14.3803 13.4885 14.3499 14.0249C14.2789 15.1026 13.9441 16.0801 13.2492 16.9373C12.463 17.8997 11.4587 18.5363 10.2971 18.9624C9.53116 19.2481 8.73477 19.4035 7.91813 19.4687C7.63915 19.4937 7.36019 19.4787 6.98483 19.4987L6.98991 19.5038Z" fill="var(--fill-0, #5A5A5C)"/>
</svg>
