<svg preserveAspectRatio="none" width="100%" height="100%" overflow="visible" style="display: block;" viewBox="0 0 15.6905 3.86479" fill="none" xmlns="http://www.w3.org/2000/svg">
<path id="Vector" d="M9.80201 3.85977C8.73174 3.85977 7.66658 3.85477 6.59631 3.85477C6.35791 3.85477 6.12457 3.85476 5.88617 3.86479C4.59273 3.86479 3.29927 3.86478 2.00582 3.85977C1.85872 3.85977 1.7167 3.85477 1.5696 3.83471C0.676872 3.69937 -0.12966 2.85724 0.0174379 1.67424C0.139174 0.666688 0.935576 0 1.96526 0C5.90647 0 9.85273 0 13.7939 0C14.6664 0 15.4374 0.631601 15.6352 1.48877C15.8482 2.42114 15.4323 3.31339 14.6106 3.68934C14.3316 3.81967 14.0323 3.85977 13.7229 3.85977C12.4903 3.85977 11.2578 3.85977 10.0252 3.85977C9.95421 3.85977 9.8781 3.85978 9.80708 3.86479L9.80201 3.85977Z" fill="var(--fill-0, #EF7E22)"/>
</svg>
