<svg preserveAspectRatio="none" width="100%" height="100%" overflow="visible" style="display: block;" viewBox="0 0 3.91583 19.4989" fill="none" xmlns="http://www.w3.org/2000/svg">
<path id="Vector" d="M3.91583 9.7328C3.91583 12.3444 3.91583 14.961 3.91583 17.5727C3.91583 18.4148 3.40862 19.1116 2.60211 19.3873C1.78547 19.663 0.89781 19.4173 0.385503 18.7707C0.111596 18.4198 0 18.0188 0 17.5777C0 15.6779 0 13.778 0 11.8782C0 8.54479 0 5.21134 0 1.8829C0 0.970591 0.628956 0.208653 1.50647 0.0432339C2.50065 -0.147249 3.41366 0.303895 3.77379 1.15605C3.88031 1.40168 3.91583 1.66234 3.91583 1.92802C3.91583 4.52961 3.91583 7.1312 3.91583 9.7328Z" fill="var(--fill-0, #5A5A5C)"/>
</svg>
