<svg preserveAspectRatio="none" width="100%" height="100%" overflow="visible" style="display: block;" viewBox="0 0 17.7887 19.5157" fill="none" xmlns="http://www.w3.org/2000/svg">
<path id="Vector" d="M3.91076 14.5471C3.91076 15.5847 3.9209 16.6223 3.91076 17.655C3.90568 18.6024 3.12962 19.3944 2.13544 19.5046C1.19198 19.6099 0.268822 18.9532 0.050711 18.0209C0.0101323 17.8454 0 17.665 0 17.4845C0 14.5822 0 11.6848 0 8.78246C0.0101447 4.58683 2.99268 1.00275 7.16214 0.170643C11.9048 -0.771746 16.6017 2.286 17.5959 6.95283C17.7227 7.55937 17.7887 8.17092 17.7887 8.78748C17.7887 11.6898 17.7887 14.5872 17.7887 17.4895C17.7887 18.467 17.2054 19.2239 16.2924 19.4495C15.0699 19.7503 13.8728 18.8279 13.8728 17.5848C13.8728 14.6674 13.8728 11.75 13.8728 8.82759C13.8728 6.31623 12.0519 4.256 9.53603 3.90511C6.92377 3.5442 4.38757 5.40892 3.98685 7.97542C3.88541 8.62206 3.93106 9.26869 3.92091 9.91032C3.91584 10.1559 3.92091 10.4016 3.92091 10.6472C3.80425 10.6522 3.68762 10.6472 3.57603 10.6723C2.25214 10.9229 1.56229 12.2964 2.1659 13.4844C2.52604 14.1862 3.13469 14.502 3.91583 14.532L3.91076 14.5471Z" fill="var(--fill-0, #5A5A5C)"/>
</svg>
