<svg preserveAspectRatio="none" width="100%" height="100%" overflow="visible" style="display: block;" viewBox="0 0 15.5631 19.5221" fill="none" xmlns="http://www.w3.org/2000/svg">
<path id="Vector" d="M9.6594 19.5221C7.03193 19.4268 4.67837 18.6298 2.76103 16.8002C1.35599 15.4618 0.53425 13.7976 0.204548 11.9028C-0.0795029 10.2987 -0.0947199 8.68963 0.331357 7.11063C1.2951 3.56164 3.6284 1.32095 7.19933 0.368539C9.54782 -0.258049 11.876 -0.0876078 14.123 0.894882C14.2498 0.950022 14.3716 1.01518 14.4984 1.07533C15.6042 1.5766 15.7259 2.8398 15.2998 3.59672C15.0158 4.103 14.6455 4.50904 14.0216 4.58924C13.56 4.64939 13.1187 4.55415 12.6927 4.36868C11.0238 3.63683 9.31446 3.56163 7.60508 4.17318C5.78918 4.82483 4.70374 6.15321 4.28781 7.99287C3.9226 9.60195 3.99356 11.196 4.67833 12.7249C5.38845 14.3089 6.64645 15.2412 8.34568 15.5971C9.6442 15.8678 10.9376 15.8478 12.2006 15.3966C12.3528 15.3415 12.4999 15.2713 12.647 15.2011C13.0224 15.0207 13.4129 14.9304 13.8288 14.9655C14.6151 15.0307 15.0969 15.5019 15.3962 16.1686C15.6802 16.8052 15.5991 17.4218 15.173 17.9782C15.0158 18.1837 14.8078 18.3291 14.5795 18.4443C13.3013 19.0709 11.9521 19.4218 10.5318 19.5071C10.3847 19.5171 10.2427 19.5221 10.0956 19.5221C9.94852 19.5221 9.8065 19.5221 9.6594 19.5221Z" fill="var(--fill-0, #5A5A5C)"/>
</svg>
