<svg preserveAspectRatio="none" width="100%" height="100%" overflow="visible" style="display: block;" viewBox="0 0 17.7992 19.4915" fill="none" xmlns="http://www.w3.org/2000/svg">
<path id="Vector" d="M17.7987 12.9972C17.7987 14.506 17.7987 16.0199 17.7987 17.5287C17.7987 18.5663 17.0327 19.3934 15.998 19.4836C14.9987 19.5689 14.0959 18.8821 13.9133 17.8896C13.8828 17.7392 13.8828 17.5788 13.8828 17.4234C13.8828 14.5411 13.8828 11.6588 13.8828 8.77651C13.8828 6.47066 12.28 4.48564 9.99742 3.97434C7.25835 3.35778 4.49898 5.16736 4.01711 7.89928C3.96638 8.17498 3.94101 8.4557 3.94101 8.73641C3.94101 11.6538 3.94101 14.5712 3.94101 17.4936C3.94101 18.446 3.35264 19.2079 2.43962 19.4335C1.22733 19.7343 0.0200953 18.827 0.0150229 17.5938C0.00487823 14.5862 -0.0154062 11.5786 0.0201002 8.57098C0.0505343 6.34534 0.877316 4.40042 2.41931 2.7763C3.83449 1.28252 5.57431 0.370201 7.62354 0.094502C10.2814 -0.266413 12.6604 0.405288 14.7045 2.12966C16.3936 3.55327 17.3878 5.3779 17.7175 7.5484C17.7733 7.91433 17.8038 8.28527 17.7987 8.65621C17.7987 10.1049 17.7987 11.5586 17.7987 13.0072V12.9972Z" fill="var(--fill-0, #5A5A5C)"/>
</svg>
