<svg viewBox="0 0 196.59 24" fill="none" xmlns="http://www.w3.org/2000/svg" preserveAspectRatio="xMidYMid meet">
  <!-- n -->
  <g transform="translate(0, 0.0336) scale(1.2294, 1.2304)">
    <path d="M0.00990353 13.0191C0.00990353 11.5203 -0.0154532 10.0215 0.0149808 8.52272C0.0606319 6.43744 0.801183 4.59276 2.191 3.01877C3.56561 1.45982 5.29528 0.472318 7.35972 0.136467C10.1546 -0.319689 12.6502 0.367054 14.7856 2.20672C16.3631 3.56516 17.3117 5.29454 17.6718 7.3297C17.753 7.79588 17.7935 8.26708 17.7935 8.74328C17.7935 10.0065 17.7935 11.2697 17.7935 12.5379C17.7935 13.5104 17.1646 14.2773 16.2262 14.4778C15.0342 14.7285 13.8828 13.8262 13.8777 12.6231C13.8726 11.3549 13.8777 10.0817 13.8777 8.81347C13.8777 7.6806 13.548 6.64296 12.8176 5.76574C11.4835 4.15666 9.74879 3.52005 7.70464 4.02633C5.68077 4.5276 4.45836 5.87101 4.01199 7.88612C3.94098 8.1969 3.92577 8.5127 3.92577 8.83351C3.92577 11.7459 3.92577 14.6583 3.92577 17.5706C3.92577 18.5582 3.23085 19.3301 2.20624 19.4855C1.30843 19.6208 0.380181 19.0344 0.101202 18.1521C0.0352615 17.9366 0.00482624 17.721 0.00482624 17.4955C0.00482624 16.0017 0.00482624 14.5129 0.00482624 13.0191C0.00482624 13.0191 0.00483119 13.0191 0.00990353 13.0191Z" fill="#5A5A5C"/>
  </g>
  <!-- n dot (orange) -->
  <g transform="translate(17.044, 19.236) scale(1.235, 1.2282)">
    <path d="M3.92091 1.92989C3.92091 2.99259 3.04848 3.85978 1.96807 3.86981C0.887662 3.87482 0 3.00261 0 1.92989C0 0.867201 0.877513 0.0050127 1.96299 0C3.03833 0 3.92092 0.867201 3.92599 1.92989H3.92091Z" fill="#EF7E22"/>
  </g>
  <!-- u -->
  <g transform="translate(26.986, 0.0336) scale(1.2306, 1.2279)">
    <path d="M0.0101236 6.60211C0.0101236 5.04817 0.0101236 3.49924 0.0101236 1.9453C0.0101236 0.877595 0.841994 0.0204208 1.8869 0.00037C3.00281 -0.0196808 3.87526 0.777344 3.92091 1.87011C3.93106 2.13579 3.92091 2.39644 3.92091 2.66211C3.92091 5.36897 3.92091 8.08084 3.92091 10.7877C3.92091 13.0735 5.67592 15.1438 7.9534 15.5448C10.7128 16.031 13.2743 14.2916 13.7866 11.5847C13.8373 11.309 13.8627 11.0283 13.8627 10.7476C13.8627 7.8252 13.8627 4.89778 13.8627 1.97538C13.8627 0.987874 14.4968 0.225945 15.4706 0.0354626C16.6322 -0.190109 17.7583 0.702154 17.7735 1.87011C17.7837 2.38141 17.7735 2.88769 17.7735 3.39898C17.7735 5.87526 17.7735 8.34652 17.7735 10.8228C17.7735 14.9081 14.7047 18.5724 10.6265 19.3243C7.70486 19.8607 5.10783 19.1539 2.89629 17.199C1.31372 15.7954 0.385484 14.0259 0.0811439 11.9456C0.0202758 11.5346 0 11.1236 0 10.7125C0 9.34405 0 7.98059 0 6.61213L0.0101236 6.60211Z" fill="#5A5A5C"/>
  </g>
  <!-- s -->
  <g transform="translate(52.586, 0.0336) scale(1.2341, 1.2279)">
    <path d="M7.2166 0C9.05279 0 10.7724 0.426074 12.3346 1.40355C12.7455 1.6592 13.1411 1.94494 13.4302 2.34094C14.3889 3.63923 13.3846 5.09291 12.2535 5.2483C11.8578 5.30344 11.4774 5.25331 11.1629 5.00769C10.4223 4.42621 9.55494 4.10039 8.66728 3.83471C7.61223 3.51891 6.55211 3.51892 5.49199 3.82469C5.11156 3.93497 4.75654 4.1054 4.45727 4.37108C3.66092 5.08288 3.74205 6.30599 4.62464 6.94761C5.10144 7.28848 5.65433 7.44387 6.21229 7.59926C7.11516 7.84989 8.04341 7.96518 8.95136 8.17572C9.94554 8.4063 10.9245 8.66696 11.8375 9.14317C13.2882 9.9051 14.0693 11.1031 14.2672 12.6922C14.3838 13.6295 14.3686 14.5569 14.0541 15.4592C13.5875 16.7775 12.6694 17.7199 11.4723 18.4167C10.331 19.0783 9.08327 19.4092 7.76953 19.4794C6.12102 19.5646 4.50798 19.4092 2.97613 18.7575C2.09354 18.3816 1.29209 17.8703 0.6124 17.2036C-0.254971 16.3565 -0.188973 15.0381 0.734193 14.3414C1.36824 13.8601 2.27106 13.8601 2.90003 14.3414C3.56958 14.8526 4.25943 15.3489 5.07101 15.5945C6.51663 16.0356 7.95715 16.0807 9.36219 15.409C9.69189 15.2486 9.98105 15.0331 10.2245 14.7624C10.7673 14.1659 10.5999 13.1784 10.0825 12.6671C9.65641 12.246 9.12381 12.0004 8.56078 11.8099C7.77457 11.5443 6.95792 11.4239 6.14634 11.3036C4.7971 11.1031 3.49859 10.7623 2.35732 9.98029C1.03851 9.07801 0.35884 7.8148 0.226959 6.25084C0.140729 5.24329 0.252291 4.26582 0.703729 3.34348C1.33777 2.06023 2.38268 1.21308 3.69135 0.66168C4.81741 0.190486 6.00432 -0.00500781 7.22675 0.0050176L7.2166 0Z" fill="#5A5A5C"/>
  </g>
  <!-- a -->
  <g transform="translate(74.267, 0.0168) scale(1.2272, 1.2277)">
    <path d="M3.91076 14.5471C3.91076 15.5847 3.9209 16.6223 3.91076 17.655C3.90568 18.6024 3.12962 19.3944 2.13544 19.5046C1.19198 19.6099 0.268822 18.9532 0.050711 18.0209C0.0101323 17.8454 0 17.665 0 17.4845C0 14.5822 0 11.6848 0 8.78246C0.0101447 4.58683 2.99268 1.00275 7.16214 0.170643C11.9048 -0.771746 16.6017 2.286 17.5959 6.95283C17.7227 7.55937 17.7887 8.17092 17.7887 8.78748C17.7887 11.6898 17.7887 14.5872 17.7887 17.4895C17.7887 18.467 17.2054 19.2239 16.2924 19.4495C15.0699 19.7503 13.8728 18.8279 13.8728 17.5848C13.8728 14.6674 13.8728 11.75 13.8728 8.82759C13.8728 6.31623 12.0519 4.256 9.53603 3.90511C6.92377 3.5442 4.38757 5.40892 3.98685 7.97542C3.88541 8.62206 3.93106 9.26869 3.92091 9.91032C3.91584 10.1559 3.92091 10.4016 3.92091 10.6472C3.80425 10.6522 3.68762 10.6472 3.57603 10.6723C2.25214 10.9229 1.56229 12.2964 2.1659 13.4844C2.52604 14.1862 3.13469 14.502 3.91583 14.532L3.91076 14.5471Z" fill="#5A5A5C"/>
  </g>
  <!-- a counter (orange) -->
  <g transform="translate(76.627, 13.111) scale(1.2357, 1.2302)">
    <path d="M1.97042 3.88485C1.18928 3.85477 0.580625 3.53897 0.220488 2.83719C-0.38312 1.64417 0.306733 0.275708 1.63061 0.0250727C1.74221 0.00502188 1.85884 0.0100254 1.9755 0C3.62908 0 5.2776 4.89533e-06 6.93119 0.0050176C7.02756 0.0050176 7.12391 0.00501699 7.22028 0.0200551C8.08765 0.155398 8.75218 0.842136 8.8587 1.70933C8.97029 2.59658 8.5188 3.39862 7.72752 3.72445C7.45361 3.83473 7.16452 3.86481 6.87032 3.86481C5.30804 3.86481 3.75084 3.86481 2.18856 3.86481C2.11755 3.86481 2.04143 3.84977 1.97042 3.87984V3.88485Z" fill="#EF7E22"/>
  </g>
  <!-- n (second) -->
  <g transform="translate(100.587, 0.0432) scale(1.2289, 1.2291)">
    <path d="M17.7987 12.9972C17.7987 14.506 17.7987 16.0199 17.7987 17.5287C17.7987 18.5663 17.0327 19.3934 15.998 19.4836C14.9987 19.5689 14.0959 18.8821 13.9133 17.8896C13.8828 17.7392 13.8828 17.5788 13.8828 17.4234C13.8828 14.5411 13.8828 11.6588 13.8828 8.77651C13.8828 6.47066 12.28 4.48564 9.99742 3.97434C7.25835 3.35778 4.49898 5.16736 4.01711 7.89928C3.96638 8.17498 3.94101 8.4557 3.94101 8.73641C3.94101 11.6538 3.94101 14.5712 3.94101 17.4936C3.94101 18.446 3.35264 19.2079 2.43962 19.4335C1.22733 19.7343 0.0200953 18.827 0.0150229 17.5938C0.00487823 14.5862 -0.0154062 11.5786 0.0201002 8.57098C0.0505343 6.34534 0.877316 4.40042 2.41931 2.7763C3.83449 1.28252 5.57431 0.370201 7.62354 0.094502C10.2814 -0.266413 12.6604 0.405288 14.7045 2.12966C16.3936 3.55327 17.3878 5.3779 17.7175 7.5484C17.7733 7.91433 17.8038 8.28527 17.7987 8.65621C17.7987 10.1049 17.7987 11.5586 17.7987 13.0072V12.9972Z" fill="#5A5A5C"/>
  </g>
  <!-- t crossbar (orange) -->
  <g transform="translate(124.186, 0.0432) scale(1.2255, 1.2239)">
    <path d="M9.80201 3.85977C8.73174 3.85977 7.66658 3.85477 6.59631 3.85477C6.35791 3.85477 6.12457 3.85476 5.88617 3.86479C4.59273 3.86479 3.29927 3.86478 2.00582 3.85977C1.85872 3.85977 1.7167 3.85477 1.5696 3.83471C0.676872 3.69937 -0.12966 2.85724 0.0174379 1.67424C0.139174 0.666688 0.935576 0 1.96526 0C5.90647 0 9.85273 0 13.7939 0C14.6664 0 15.4374 0.631601 15.6352 1.48877C15.8482 2.42114 15.4323 3.31339 14.6106 3.68934C14.3316 3.81967 14.0323 3.85977 13.7229 3.85977C12.4903 3.85977 11.2578 3.85977 10.0252 3.85977C9.95421 3.85977 9.8781 3.85978 9.80708 3.86479L9.80201 3.85977Z" fill="#EF7E22"/>
  </g>
  <!-- t stem -->
  <g transform="translate(131.38, 4.774) scale(1.2336, 1.2288)">
    <path d="M3.91583 0.0100199C3.91583 4.59163 3.91583 9.17826 3.91583 13.7599C3.91583 14.6471 3.23616 15.4391 2.3485 15.6045C1.34417 15.79 0.451429 15.3288 0.116654 14.4466C0.0304241 14.2261 0 13.9955 0 13.7599C0 9.25847 0 4.76206 0 0.260655C0 0.175439 0 0.0952358 0 0.0100199C0.2384 0.0100199 0.47174 0 0.71014 0C1.7804 0 2.84557 4.89533e-06 3.91583 0.0050176V0.0100199Z" fill="#5A5A5C"/>
  </g>
  <!-- i stem -->
  <g transform="translate(146.491, 0.0336) scale(1.2393, 1.2288)">
    <path d="M3.91583 9.7328C3.91583 12.3444 3.91583 14.961 3.91583 17.5727C3.91583 18.4148 3.40862 19.1116 2.60211 19.3873C1.78547 19.663 0.89781 19.4173 0.385503 18.7707C0.111596 18.4198 0 18.0188 0 17.5777C0 15.6779 0 13.778 0 11.8782C0 8.54479 0 5.21134 0 1.8829C0 0.970591 0.628956 0.208653 1.50647 0.0432339C2.50065 -0.147249 3.41366 0.303895 3.77379 1.15605C3.88031 1.40168 3.91583 1.66234 3.91583 1.92802C3.91583 4.52961 3.91583 7.1312 3.91583 9.7328Z" fill="#5A5A5C"/>
  </g>
  <!-- c -->
  <g transform="translate(155.972, 0) scale(1.2291, 1.2287)">
    <path d="M9.6594 19.5221C7.03193 19.4268 4.67837 18.6298 2.76103 16.8002C1.35599 15.4618 0.53425 13.7976 0.204548 11.9028C-0.0795029 10.2987 -0.0947199 8.68963 0.331357 7.11063C1.2951 3.56164 3.6284 1.32095 7.19933 0.368539C9.54782 -0.258049 11.876 -0.0876078 14.123 0.894882C14.2498 0.950022 14.3716 1.01518 14.4984 1.07533C15.6042 1.5766 15.7259 2.8398 15.2998 3.59672C15.0158 4.103 14.6455 4.50904 14.0216 4.58924C13.56 4.64939 13.1187 4.55415 12.6927 4.36868C11.0238 3.63683 9.31446 3.56163 7.60508 4.17318C5.78918 4.82483 4.70374 6.15321 4.28781 7.99287C3.9226 9.60195 3.99356 11.196 4.67833 12.7249C5.38845 14.3089 6.64645 15.2412 8.34568 15.5971C9.6442 15.8678 10.9376 15.8478 12.2006 15.3966C12.3528 15.3415 12.4999 15.2713 12.647 15.2011C13.0224 15.0207 13.4129 14.9304 13.8288 14.9655C14.6151 15.0307 15.0969 15.5019 15.3962 16.1686C15.6802 16.8052 15.5991 17.4218 15.173 17.9782C15.0158 18.1837 14.8078 18.3291 14.5795 18.4443C13.3013 19.0709 11.9521 19.4218 10.5318 19.5071C10.3847 19.5171 10.2427 19.5221 10.0956 19.5221C9.94852 19.5221 9.8065 19.5221 9.6594 19.5221Z" fill="#5A5A5C"/>
  </g>
  <!-- s (final) -->
  <g transform="translate(178.918, 0.036) scale(1.2308, 1.2306)">
    <path d="M6.98991 19.5038C5.73704 19.4937 4.41313 19.3133 3.15519 18.807C2.44506 18.5263 1.79073 18.1303 1.1922 17.6541C0.903073 17.4235 0.619054 17.2029 0.400943 16.9072C-0.339619 15.9046 -0.0352835 14.5362 1.15672 14.0499C1.81105 13.7843 2.44511 13.9196 3.01321 14.3708C3.87044 15.0475 4.78851 15.6139 5.90442 15.7994C6.6602 15.9247 7.41596 15.9497 8.16667 15.8194C8.86665 15.6991 9.51591 15.4234 10.0688 14.9572C10.7383 14.3908 10.6775 13.3782 10.221 12.8168C9.76448 12.2604 9.13046 11.9947 8.47106 11.7792C7.79644 11.5586 7.10148 11.4383 6.39642 11.3331C5.05733 11.1326 3.75374 10.8117 2.60232 10.0698C1.44583 9.32296 0.700226 8.28534 0.416175 6.93191C0.279222 6.30031 0.263977 5.65868 0.324845 5.03209C0.492233 3.35283 1.35959 2.0746 2.78492 1.1673C3.75374 0.550735 4.83416 0.229916 5.97544 0.0795346C6.56891 -0.000668671 7.16746 -0.0157092 7.76599 0.014367C8.90727 0.0745194 10.0181 0.290062 11.0732 0.73118C11.6819 0.981815 12.2601 1.28258 12.7876 1.67357C13.2543 2.01945 13.6803 2.3954 13.8528 2.9869C13.9695 3.3829 13.9542 3.76888 13.8071 4.14985C13.4926 4.93684 12.7115 5.40302 11.8644 5.29274C11.6159 5.26267 11.3978 5.14237 11.2 4.98697C10.2819 4.2852 9.2167 3.90925 8.09571 3.68869C7.24355 3.51825 6.3914 3.5784 5.55954 3.82402C5.00158 3.98944 4.51969 4.27016 4.21535 4.78145C4.00232 5.13735 3.98707 5.52833 4.05808 5.91431C4.20518 6.71133 4.80877 7.07727 5.49861 7.33793C6.26961 7.62867 7.07615 7.80411 7.88772 7.95449C8.98842 8.16001 10.079 8.41065 11.1239 8.82169C11.7681 9.07233 12.3666 9.40818 12.884 9.87436C13.6499 10.5661 14.076 11.4283 14.2383 12.4308C14.3245 12.9622 14.3803 13.4885 14.3499 14.0249C14.2789 15.1026 13.9441 16.0801 13.2492 16.9373C12.463 17.8997 11.4587 18.5363 10.2971 18.9624C9.53116 19.2481 8.73477 19.4035 7.91813 19.4687C7.63915 19.4937 7.36019 19.4787 6.98483 19.4987L6.98991 19.5038Z" fill="#5A5A5C"/>
  </g>
</svg>
