<svg width="20" height="24" viewBox="0 0 20 24" fill="none" xmlns="http://www.w3.org/2000/svg">
<g id="CeKolam Logo">
<g id="Type=Brand Mark, State=Default" clip-path="url(#clip0_1_2465)">
<g id="Group">
<path id="Vector" d="M6.19853 5.57878C7.44066 5.11651 8.76398 4.88538 10.1661 4.88538C11.0374 4.88538 11.9075 4.98597 12.7788 5.18477C13.6501 5.38477 14.4729 5.67818 15.2485 6.06739C16.0241 6.45661 16.7354 6.93923 17.3837 7.51647C18.0321 8.0937 18.5786 8.77153 19.0246 9.54757C19.1942 9.79906 19.2427 10.0625 19.1676 10.3344C19.0936 10.6074 18.9288 10.8278 18.6743 10.9954C18.5035 11.1008 18.3241 11.1535 18.1326 11.1535C17.7073 11.1535 17.3995 10.9763 17.208 10.6182C16.4215 9.3799 15.4181 8.47094 14.1966 7.8937C12.9751 7.31647 11.6312 7.02785 10.1661 7.02785C9.06088 7.02785 8.01991 7.2003 7.04318 7.54641C6.06523 7.89251 5.21089 8.38711 4.47773 9.02782C3.74457 9.66852 3.17138 10.4505 2.75693 11.3739C2.34249 12.2984 2.13526 13.3271 2.13526 14.4601C2.13526 15.593 2.34612 16.6169 2.77269 17.5307C3.19683 18.4444 3.77608 19.2204 4.50924 19.8611C5.2424 20.5019 6.09189 21.0001 7.05772 21.3569C8.02476 21.7138 9.05967 21.8923 10.1649 21.8923C11.5669 21.8923 12.906 21.5929 14.1797 20.9941C15.4545 20.3953 16.464 19.4887 17.2068 18.2696C17.3983 17.9342 17.7061 17.7654 18.1314 17.7654C18.3435 17.7654 18.5241 17.8085 18.6731 17.8911C18.9276 18.06 19.0924 18.2851 19.1663 18.5678C19.2415 18.8516 19.193 19.1187 19.0233 19.3701C18.0878 20.9246 16.8239 22.0839 15.2315 22.8503C13.638 23.618 11.9487 24 10.1649 24C8.76277 24 7.44551 23.7689 6.21307 23.3078C4.98064 22.8455 3.90332 22.2 2.9787 21.3713C2.05528 20.5426 1.32697 19.539 0.796188 18.363C0.265406 17.1869 1.52588e-05 15.8864 1.52588e-05 14.4577C1.52588e-05 13.0289 0.265406 11.7284 0.796188 10.5523C1.32697 9.37631 2.04922 8.36915 2.96294 7.52964C3.87666 6.69013 4.95519 6.03985 6.19732 5.57638" fill="url(#paint0_linear_1_2465)"/>
<path id="Vector_2" d="M7.32428 9.91034C4.73096 9.91034 2.62843 11.9857 2.62843 14.5486C2.62843 17.1114 4.73096 19.1892 7.32428 19.1892C9.9176 19.1892 12.0177 17.1114 12.0177 14.5486C12.0177 11.9857 9.9176 9.91034 7.32428 9.91034ZM8.46219 13.0288C7.83446 13.0288 7.32428 12.5271 7.32428 11.9043C7.32428 11.2816 7.83446 10.7774 8.46219 10.7774C9.08992 10.7774 9.60252 11.2816 9.60252 11.9043C9.60252 12.5271 9.09234 13.0288 8.46219 13.0288Z" fill="#575756"/>
<path id="Vector_3" d="M16.5876 3.40789C16.4603 3.40789 16.3331 3.37076 16.2204 3.29412C9.68861 -1.22316 3.90454 3.09053 3.66217 3.27496C3.38224 3.48932 2.98112 3.43903 2.76299 3.16238C2.54607 2.88694 2.59576 2.48934 2.87448 2.27497C2.94113 2.22348 9.63407 -2.80517 16.9547 2.25581C17.2444 2.45701 17.3159 2.85101 17.1123 3.13843C16.9875 3.31448 16.7887 3.40909 16.5864 3.40909" fill="#575756"/>
</g>
</g>
</g>
<defs>
<linearGradient id="paint0_linear_1_2465" x1="0.00122709" y1="14.4445" x2="148.55" y2="14.4445" gradientUnits="userSpaceOnUse">
<stop stop-color="#EB7323"/>
<stop offset="0.11" stop-color="#E57326"/>
<stop offset="0.25" stop-color="#D57631"/>
<stop offset="0.41" stop-color="#BB7A43"/>
<stop offset="0.58" stop-color="#97805B"/>
<stop offset="0.76" stop-color="#69887B"/>
<stop offset="0.94" stop-color="#3191A2"/>
<stop offset="1" stop-color="#1D95B0"/>
</linearGradient>
<clipPath id="clip0_1_2465">
<rect width="19.2019" height="24" fill="white"/>
</clipPath>
</defs>
</svg>
