<svg width="20" height="24" viewBox="0 0 20 24" fill="none" xmlns="http://www.w3.org/2000/svg">
<g id="CeKolam Logo">
<g id="Type=Brand Mark, State=White" clip-path="url(#clip0_1_2465)">
<g id="Group">
<path id="Vector" d="M6.19853 5.57881C7.44066 5.11654 8.76398 4.88541 10.1661 4.88541C11.0374 4.88541 11.9075 4.986 12.7788 5.1848C13.6501 5.3848 14.4729 5.67821 15.2485 6.06742C16.0241 6.45664 16.7354 6.93926 17.3837 7.5165C18.0321 8.09373 18.5786 8.77156 19.0246 9.5476C19.1942 9.79909 19.2427 10.0626 19.1676 10.3344C19.0936 10.6075 18.9288 10.8278 18.6743 10.9955C18.5035 11.1009 18.3241 11.1536 18.1326 11.1536C17.7073 11.1536 17.3995 10.9763 17.208 10.6182C16.4215 9.37994 15.4181 8.47097 14.1966 7.89374C12.9751 7.3165 11.6312 7.02788 10.1661 7.02788C9.06088 7.02788 8.01991 7.20033 7.04318 7.54644C6.06523 7.89254 5.21089 8.38714 4.47773 9.02785C3.74457 9.66855 3.17138 10.4506 2.75693 11.3739C2.34249 12.2984 2.13526 13.3272 2.13526 14.4601C2.13526 15.593 2.34612 16.6169 2.77269 17.5307C3.19683 18.4444 3.77608 19.2205 4.50924 19.8612C5.2424 20.5019 6.09189 21.0001 7.05772 21.357C8.02476 21.7138 9.05967 21.8923 10.1649 21.8923C11.5669 21.8923 12.906 21.5929 14.1797 20.9941C15.4545 20.3953 16.464 19.4887 17.2068 18.2696C17.3983 17.9343 17.7061 17.7654 18.1314 17.7654C18.3435 17.7654 18.5241 17.8085 18.6731 17.8912C18.9276 18.06 19.0924 18.2852 19.1663 18.5678C19.2415 18.8516 19.193 19.1187 19.0233 19.3702C18.0878 20.9246 16.8239 22.0839 15.2315 22.8503C13.638 23.618 11.9487 24 10.1649 24C8.76277 24 7.44551 23.7689 6.21307 23.3078C4.98064 22.8456 3.90332 22.2001 2.9787 21.3713C2.05528 20.5426 1.32697 19.539 0.796188 18.363C0.265406 17.187 1.52588e-05 15.8864 1.52588e-05 14.4577C1.52588e-05 13.029 0.265406 11.7284 0.796188 10.5524C1.32697 9.37634 2.04922 8.36918 2.96294 7.52967C3.87666 6.69016 4.95519 6.03988 6.19732 5.57641" fill="white"/>
<path id="Vector_2" d="M7.32428 9.91037C4.73096 9.91037 2.62843 11.9858 2.62843 14.5486C2.62843 17.1114 4.73096 19.1892 7.32428 19.1892C9.9176 19.1892 12.0177 17.1114 12.0177 14.5486C12.0177 11.9858 9.9176 9.91037 7.32428 9.91037ZM8.46219 13.0289C7.83446 13.0289 7.32428 12.5271 7.32428 11.9043C7.32428 11.2816 7.83446 10.7774 8.46219 10.7774C9.08992 10.7774 9.60252 11.2816 9.60252 11.9043C9.60252 12.5271 9.09234 13.0289 8.46219 13.0289Z" fill="white"/>
<path id="Vector_3" d="M16.5876 3.40792C16.4603 3.40792 16.3331 3.37079 16.2204 3.29415C9.68861 -1.22313 3.90454 3.09056 3.66217 3.27499C3.38224 3.48935 2.98112 3.43906 2.76299 3.16241C2.54607 2.88697 2.59576 2.48937 2.87448 2.27501C2.94113 2.22351 9.63407 -2.80514 16.9547 2.25584C17.2444 2.45704 17.3159 2.85104 17.1123 3.13846C16.9875 3.31451 16.7887 3.40912 16.5864 3.40912" fill="white"/>
</g>
</g>
</g>
<defs>
<clipPath id="clip0_1_2465">
<rect width="19.2019" height="24" fill="white"/>
</clipPath>
</defs>
</svg>
