<svg width="115" height="24" viewBox="0 0 115 24" fill="none" xmlns="http://www.w3.org/2000/svg">
<g id="CeKolam Logo">
<g id="Type=Primary Logo, State=White" clip-path="url(#clip0_1_2465)">
<g id="Group">
<path id="Vector" d="M4.76011 4.2842C5.71399 3.92921 6.73023 3.75171 7.80695 3.75171C8.47607 3.75171 9.14425 3.82896 9.81336 3.98163C10.4825 4.13521 11.1144 4.36053 11.71 4.65943C12.3056 4.95832 12.8518 5.32895 13.3497 5.77224C13.8476 6.21552 14.2673 6.73606 14.6098 7.33201C14.7401 7.52514 14.7773 7.72747 14.7196 7.93623C14.6628 8.14592 14.5362 8.31514 14.3408 8.44389C14.2096 8.52483 14.0719 8.56529 13.9248 8.56529C13.5982 8.56529 13.3618 8.42918 13.2148 8.1542C12.6108 7.20325 11.8402 6.50522 10.9022 6.06193C9.96412 5.61865 8.93207 5.39701 7.80695 5.39701C6.95823 5.39701 6.15883 5.52944 5.40875 5.79523C4.65774 6.06101 4.00166 6.44084 3.43863 6.93287C2.87561 7.42489 2.43543 8.02544 2.11716 8.73451C1.79888 9.4445 1.63975 10.2345 1.63975 11.1045C1.63975 11.9745 1.80168 12.7609 2.12925 13.4626C2.45497 14.1643 2.8998 14.7602 3.46283 15.2523C4.02585 15.7443 4.67822 16.1269 5.41992 16.4009C6.16255 16.675 6.9573 16.812 7.80602 16.812C8.88275 16.812 9.91108 16.5821 10.8892 16.1223C11.8682 15.6624 12.6434 14.9662 13.2138 14.03C13.3609 13.7725 13.5973 13.6428 13.9239 13.6428C14.0868 13.6428 14.2254 13.6759 14.3399 13.7394C14.5353 13.8691 14.6619 14.042 14.7187 14.259C14.7763 14.477 14.7391 14.6821 14.6088 14.8752C13.8904 16.0689 12.9198 16.9592 11.6969 17.5478C10.4732 18.1373 9.17589 18.4307 7.80602 18.4307C6.7293 18.4307 5.71772 18.2532 4.77128 17.8991C3.82484 17.5441 2.99752 17.0484 2.28746 16.412C1.57833 15.7755 1.01903 15.0049 0.611416 14.1017C0.203805 13.1986 0 12.1999 0 11.1027C0 10.0055 0.203805 9.00674 0.611416 8.10361C1.01903 7.20049 1.57367 6.42705 2.27536 5.78235C2.97705 5.13766 3.8053 4.63828 4.75918 4.28236M17.6203 3.75171C17.3756 3.75171 17.1634 3.82804 16.9847 3.98163C16.8051 4.13521 16.7158 4.32467 16.7158 4.54999V17.6103C16.7158 17.8365 16.7967 18.0297 16.9605 18.1906C17.1234 18.3516 17.3197 18.4325 17.5477 18.4325H27.5807C27.8097 18.4325 28.0004 18.3516 28.1558 18.1906C28.3113 18.0297 28.3885 17.8365 28.3885 17.6103C28.3885 17.3841 28.3113 17.1918 28.1558 17.03C28.0004 16.869 27.8097 16.7881 27.5807 16.7881H18.3797V13.0147H26.5775C26.8055 13.0147 27.0019 12.9347 27.1647 12.7728C27.3276 12.6119 27.4095 12.4187 27.4095 12.1925C27.4095 11.9663 27.3276 11.7777 27.1647 11.6241C27.0009 11.4705 26.8055 11.3942 26.5775 11.3942H18.3797V5.37218H27.5807C27.8097 5.37218 28.0004 5.29217 28.1558 5.1303C28.3113 4.96936 28.3885 4.77531 28.3885 4.54999C28.3885 4.32467 28.3113 4.13521 28.1558 3.98163C28.0004 3.82896 27.8097 3.75171 27.5807 3.75171H17.6203ZM43.5855 3.9945L31.9863 15.6275V4.57482C31.9863 4.3495 31.9044 4.15545 31.7415 3.9945C31.5787 3.83356 31.3823 3.75263 31.1543 3.75263C30.9263 3.75263 30.7346 3.83356 30.5792 3.9945C30.4238 4.15545 30.3465 4.3495 30.3465 4.57482V17.6342C30.3465 17.8605 30.4238 18.049 30.5792 18.2017C30.7337 18.3552 30.9254 18.4316 31.1543 18.4316C31.4316 18.4316 31.6438 18.335 31.7908 18.1419L36.4644 13.4497L43.7083 18.2872C43.8554 18.3837 44.0098 18.4325 44.1736 18.4325C44.4677 18.4325 44.6873 18.3203 44.8344 18.0941C44.9647 17.9009 45.0093 17.6949 44.9693 17.4769C44.9284 17.2599 44.8102 17.0861 44.6147 16.9573L37.6407 12.29L44.7618 5.13122C44.9246 4.97028 45.0028 4.78083 44.9944 4.56286C44.9861 4.34582 44.9004 4.15637 44.7376 3.9945C44.5905 3.83356 44.4035 3.75263 44.1746 3.75263C43.9456 3.75263 43.7502 3.83356 43.5873 3.9945M62.0536 8.10453C61.6469 7.20233 61.0876 6.42889 60.3785 5.78327C59.6693 5.13766 58.8346 4.63828 57.8816 4.2842C56.9268 3.92829 55.9106 3.75171 54.8348 3.75171C53.759 3.75171 52.7409 3.92829 51.7879 4.2842C50.8331 4.63828 50.0002 5.13766 49.2911 5.78327C48.582 6.42889 48.0227 7.20233 47.6132 8.10453C47.2065 9.00857 47.0027 10.0083 47.0027 11.1045C47.0027 12.2008 47.2112 13.2005 47.6272 14.1017C48.0431 15.0058 48.6071 15.7755 49.3162 16.412C50.0254 17.0484 50.8527 17.5459 51.7991 17.9C52.7456 18.2541 53.7562 18.4325 54.8348 18.4325C55.9134 18.4325 56.9222 18.2532 57.8677 17.9C58.8141 17.5459 59.6414 17.0493 60.3534 16.412C61.0625 15.7755 61.6264 15.0058 62.0424 14.1017C62.4565 13.1995 62.6669 12.2008 62.6669 11.1045C62.6669 10.0083 62.4612 9.00857 62.0536 8.10453ZM60.5125 13.4607C60.1858 14.1634 59.741 14.7602 59.1789 15.2513C58.615 15.7443 57.9617 16.1269 57.219 16.4009C56.4764 16.675 55.6826 16.812 54.8348 16.812C53.987 16.812 53.1857 16.6768 52.4366 16.412C51.6846 16.1471 51.0314 15.7645 50.4767 15.2624C49.9221 14.7648 49.4837 14.1634 49.1571 13.4607C48.8304 12.7599 48.6676 11.9754 48.6676 11.1045C48.6676 10.2336 48.8267 9.4445 49.1441 8.73451C49.4614 8.02452 49.9025 7.42397 50.4665 6.93287C51.0304 6.43992 51.6856 6.06193 52.4375 5.79431C53.1867 5.52944 53.9851 5.39609 54.8357 5.39609C55.6863 5.39609 56.5025 5.52852 57.2451 5.79431C57.9877 6.06193 58.641 6.43992 59.205 6.93287C59.7661 7.42397 60.2072 8.02452 60.5246 8.73451C60.8447 9.4445 61.0029 10.2336 61.0029 11.1045C61.0029 11.9754 60.8401 12.7599 60.5134 13.4607H60.5125ZM64.8799 3.9945C64.7161 4.15545 64.6351 4.3495 64.6351 4.57482V17.6342C64.6351 17.8605 64.717 18.049 64.8799 18.2017C65.0427 18.3552 65.2382 18.4316 65.4671 18.4316H75.5001C75.7281 18.4316 75.9198 18.3552 76.0752 18.2017C76.2306 18.049 76.3079 17.8595 76.3079 17.6342C76.3079 17.4089 76.2306 17.2148 76.0752 17.0539C75.9207 16.893 75.7281 16.812 75.5001 16.812H66.2981V4.57482C66.2981 4.3495 66.2162 4.15545 66.0534 3.9945C65.8905 3.83356 65.6942 3.75263 65.4662 3.75263C65.2382 3.75263 65.0418 3.83356 64.8789 3.9945M93.8463 17.2479L86.8471 4.18764C86.6861 3.89794 86.4404 3.75171 86.1138 3.75171C85.7871 3.75171 85.5433 3.89794 85.3805 4.18764L78.3813 17.2479C78.2668 17.4402 78.2473 17.6462 78.3208 17.8623C78.3943 18.0812 78.5293 18.2384 78.7256 18.335C78.8373 18.3994 78.9694 18.4325 79.1174 18.4325C79.4599 18.4325 79.7037 18.2863 79.8507 17.9966L82.4192 13.2087H89.8102L92.3806 17.9966C92.5285 18.2863 92.7724 18.4325 93.1139 18.4325C93.2619 18.4325 93.3912 18.3994 93.5057 18.335C93.703 18.2375 93.837 18.0803 93.9105 17.8623C93.984 17.6452 93.9617 17.4402 93.8481 17.2479H93.8463ZM83.2745 11.5883L86.1128 6.31576L88.9512 11.5883H83.2735H83.2745ZM112.66 4.01842L105 12.1925L97.3882 4.06624C97.2254 3.85747 97.0132 3.75171 96.7526 3.75171C96.5237 3.75171 96.3283 3.83264 96.1654 3.99358C96.0016 4.15453 95.9206 4.34858 95.9206 4.5739V17.6333C95.9206 17.8595 96.0025 18.0481 96.1654 18.2007C96.3283 18.3543 96.5237 18.4307 96.7526 18.4307C96.9815 18.4307 97.1723 18.3543 97.3268 18.2007C97.4822 18.0481 97.5595 17.8586 97.5595 17.6333V6.65329L104.387 13.9325C104.566 14.11 104.771 14.1983 104.999 14.1983C105.211 14.1983 105.398 14.1257 105.562 13.9803L105.61 13.9325L112.438 6.65329V17.6333C112.438 17.8595 112.515 18.0481 112.671 18.2007C112.825 18.3543 113.018 18.4307 113.246 18.4307C113.474 18.4307 113.669 18.3543 113.833 18.2007C113.996 18.0481 114.078 17.8586 114.078 17.6333V4.57482C114.078 4.3495 113.996 4.15545 113.833 3.9945C113.67 3.83356 113.474 3.75263 113.246 3.75263C113.001 3.75263 112.805 3.84092 112.659 4.01933" fill="white"/>
<path id="Vector_2" d="M52.8628 7.6106C50.8713 7.6106 49.2585 9.20439 49.2585 11.1725C49.2585 13.1406 50.8713 14.7362 52.8628 14.7362C54.8543 14.7362 56.469 13.1406 56.469 11.1725C56.469 9.20439 54.8543 7.6106 52.8628 7.6106ZM53.7385 10.0054C53.2546 10.0054 52.8628 9.62009 52.8628 9.14186C52.8628 8.66362 53.2546 8.27644 53.7385 8.27644C54.2225 8.27644 54.6124 8.66362 54.6124 9.14186C54.6124 9.62009 54.2225 10.0054 53.7385 10.0054Z" fill="white"/>
<path id="Vector_3" d="M5.62462 7.6106C3.6331 7.6106 2.01848 9.20439 2.01848 11.1725C2.01848 13.1406 3.6331 14.7362 5.62462 14.7362C7.61614 14.7362 9.22891 13.1406 9.22891 11.1725C9.22891 9.20439 7.61614 7.6106 5.62462 7.6106ZM6.49847 10.0054C6.01641 10.0054 5.62462 9.62009 5.62462 9.14186C5.62462 8.66362 6.01641 8.27644 6.49847 8.27644C6.98053 8.27644 7.37418 8.66362 7.37418 9.14186C7.37418 9.62009 6.98239 10.0054 6.49847 10.0054Z" fill="white"/>
<path id="Vector_4" d="M59.9783 2.61707C59.8806 2.61707 59.7829 2.58856 59.6963 2.5297C54.6803 -0.939321 50.2385 2.37335 50.0523 2.51498C49.8374 2.6796 49.5293 2.64098 49.3618 2.42853C49.1953 2.21701 49.2334 1.91167 49.4474 1.74705C49.4986 1.70751 54.6384 -2.15421 60.2603 1.73234C60.4827 1.88684 60.5376 2.18942 60.3813 2.41014C60.2854 2.54533 60.1328 2.61798 59.9774 2.61798" fill="white"/>
<path id="Vector_5" d="M12.7383 2.61707C12.6406 2.61707 12.5429 2.58856 12.4563 2.5297C7.44029 -0.939321 2.99845 2.37335 2.81233 2.51498C2.59736 2.6796 2.28932 2.64098 2.12181 2.42853C1.95523 2.21701 1.99339 1.91167 2.20743 1.74705C2.25861 1.70751 7.39841 -2.15421 13.0203 1.73234C13.2427 1.88684 13.2976 2.18942 13.1413 2.41014C13.0454 2.54533 12.8928 2.61798 12.7374 2.61798" fill="white"/>
</g>
<g id="Group_2">
<g id="Group_3">
<path id="Vector_6" d="M103.006 22.8072C103.006 23.084 103.006 23.3618 103.006 23.6386C103.006 23.829 102.865 23.9807 102.675 23.9973C102.492 24.0129 102.326 23.8869 102.293 23.7048C102.287 23.6772 102.287 23.6478 102.287 23.6193C102.287 23.0905 102.287 22.5617 102.287 22.0329C102.287 21.6098 101.993 21.2456 101.574 21.1518C101.072 21.0387 100.566 21.3707 100.477 21.8719C100.468 21.9225 100.463 21.974 100.463 22.0255C100.463 22.5608 100.463 23.096 100.463 23.6322C100.463 23.8069 100.355 23.9467 100.188 23.9881C99.9654 24.0433 99.7439 23.8768 99.743 23.6506C99.7411 23.0988 99.7374 22.547 99.7439 21.9951C99.7495 21.5868 99.9012 21.23 100.184 20.932C100.444 20.6579 100.763 20.4906 101.139 20.44C101.627 20.3738 102.063 20.497 102.438 20.8134C102.748 21.0746 102.93 21.4093 102.991 21.8075C103.001 21.8747 103.007 21.9427 103.006 22.0108C103.006 22.2766 103.006 22.5433 103.006 22.8091V22.8072Z" fill="white"/>
<path id="Vector_7" d="M88.7542 21.6325C88.7542 21.3474 88.7542 21.0632 88.7542 20.7781C88.7542 20.5822 88.9069 20.4249 89.0986 20.4212C89.3033 20.4176 89.4634 20.5638 89.4717 20.7643C89.4736 20.813 89.4717 20.8608 89.4717 20.9096C89.4717 21.4062 89.4717 21.9038 89.4717 22.4004C89.4717 22.8198 89.7937 23.1996 90.2116 23.2732C90.7178 23.3624 91.1878 23.0432 91.2818 22.5466C91.2911 22.496 91.2958 22.4445 91.2958 22.393C91.2958 21.8569 91.2958 21.3198 91.2958 20.7836C91.2958 20.6024 91.4121 20.4626 91.5908 20.4277C91.8039 20.3863 92.0105 20.55 92.0133 20.7643C92.0151 20.8581 92.0133 20.951 92.0133 21.0448C92.0133 21.4991 92.0133 21.9525 92.0133 22.4068C92.0133 23.1564 91.4502 23.8286 90.702 23.9666C90.166 24.065 89.6895 23.9353 89.2838 23.5766C88.9934 23.3191 88.8231 22.9945 88.7673 22.6128C88.7561 22.5374 88.7524 22.462 88.7524 22.3866C88.7524 22.1355 88.7524 21.8854 88.7524 21.6343L88.7542 21.6325Z" fill="white"/>
<path id="Vector_8" d="M93.9006 20.4213C94.2374 20.4213 94.5529 20.4994 94.8396 20.6788C94.9149 20.7257 94.9875 20.7781 95.0406 20.8508C95.2165 21.089 95.0322 21.3557 94.8247 21.3842C94.7521 21.3943 94.6823 21.3851 94.6246 21.34C94.4887 21.2333 94.3296 21.1736 94.1667 21.1248C93.9731 21.0669 93.7786 21.0669 93.5841 21.123C93.5144 21.1432 93.4492 21.1745 93.3943 21.2232C93.2482 21.3538 93.2631 21.5782 93.425 21.6959C93.5125 21.7585 93.6139 21.787 93.7163 21.8155C93.882 21.8615 94.0523 21.8826 94.2188 21.9213C94.4012 21.9636 94.5808 22.0114 94.7484 22.0988C95.0145 22.2385 95.1578 22.4583 95.1941 22.7499C95.2155 22.9219 95.2127 23.092 95.155 23.2575C95.0694 23.4994 94.901 23.6723 94.6814 23.8002C94.472 23.9215 94.243 23.9823 94.002 23.9951C93.6996 24.0108 93.4036 23.9823 93.1226 23.8627C92.9606 23.7937 92.8136 23.6999 92.6889 23.5776C92.5298 23.4222 92.5419 23.1803 92.7112 23.0525C92.8276 22.9642 92.9932 22.9642 93.1086 23.0525C93.2314 23.1463 93.358 23.2373 93.5069 23.2824C93.7721 23.3633 94.0364 23.3716 94.2942 23.2483C94.3547 23.2189 94.4078 23.1794 94.4524 23.1297C94.552 23.0203 94.5213 22.8391 94.4264 22.7453C94.3482 22.668 94.2505 22.623 94.1472 22.588C94.0029 22.5393 93.8531 22.5172 93.7042 22.4951C93.4567 22.4583 93.2184 22.3958 93.009 22.2523C92.7671 22.0868 92.6424 21.855 92.6182 21.5681C92.6024 21.3832 92.6228 21.2039 92.7057 21.0347C92.822 20.7993 93.0137 20.6438 93.2538 20.5427C93.4604 20.4562 93.6781 20.4203 93.9024 20.4222L93.9006 20.4213Z" fill="white"/>
<path id="Vector_9" d="M96.5295 23.0877C96.5295 23.2781 96.5314 23.4684 96.5295 23.6579C96.5286 23.8317 96.3862 23.977 96.2038 23.9973C96.0307 24.0166 95.8614 23.8961 95.8213 23.725C95.8139 23.6928 95.812 23.6597 95.812 23.6266C95.812 23.0941 95.812 22.5626 95.812 22.0301C95.8139 21.2603 96.3611 20.6027 97.1261 20.4501C97.9962 20.2772 98.8579 20.8382 99.0403 21.6944C99.0636 21.8057 99.0757 21.9179 99.0757 22.031C99.0757 22.5635 99.0757 23.0951 99.0757 23.6276C99.0757 23.8069 98.9687 23.9458 98.8012 23.9871C98.5769 24.0423 98.3573 23.8731 98.3573 23.645C98.3573 23.1098 98.3573 22.5745 98.3573 22.0384C98.3573 21.5776 98.0232 21.1996 97.5616 21.1352C97.0823 21.069 96.617 21.4111 96.5435 21.882C96.5249 22.0006 96.5333 22.1193 96.5314 22.237C96.5305 22.2821 96.5314 22.3271 96.5314 22.3722C96.51 22.3731 96.4886 22.3722 96.4681 22.3768C96.2252 22.4228 96.0987 22.6748 96.2094 22.8927C96.2755 23.0215 96.3872 23.0794 96.5305 23.0849L96.5295 23.0877Z" fill="white"/>
<path id="Vector_10" d="M112.726 23.9997C112.496 23.9979 112.253 23.9648 112.022 23.8719C111.892 23.8204 111.772 23.7477 111.662 23.6604C111.609 23.6181 111.557 23.5776 111.517 23.5233C111.381 23.3394 111.437 23.0883 111.656 22.9991C111.776 22.9504 111.892 22.9752 111.996 23.058C112.154 23.1821 112.322 23.2861 112.527 23.3201C112.666 23.3431 112.804 23.3477 112.942 23.3238C113.07 23.3017 113.189 23.2511 113.291 23.1656C113.414 23.0617 113.403 22.8759 113.319 22.7729C113.235 22.6708 113.119 22.622 112.998 22.5825C112.874 22.542 112.746 22.52 112.617 22.5007C112.371 22.4639 112.132 22.405 111.921 22.2689C111.709 22.1319 111.572 21.9415 111.52 21.6932C111.495 21.5773 111.492 21.4596 111.503 21.3446C111.534 21.0365 111.693 20.802 111.955 20.6355C112.132 20.5224 112.33 20.4636 112.54 20.436C112.649 20.4213 112.759 20.4185 112.868 20.424C113.078 20.4351 113.282 20.4746 113.475 20.5555C113.587 20.6015 113.693 20.6567 113.79 20.7284C113.875 20.7919 113.953 20.8609 113.985 20.9694C114.007 21.042 114.004 21.1129 113.977 21.1828C113.919 21.3271 113.776 21.4127 113.62 21.3924C113.575 21.3869 113.535 21.3649 113.498 21.3363C113.33 21.2076 113.135 21.1386 112.929 21.0981C112.773 21.0669 112.616 21.0779 112.464 21.123C112.361 21.1533 112.273 21.2048 112.217 21.2986C112.178 21.3639 112.175 21.4357 112.188 21.5065C112.215 21.6527 112.326 21.7198 112.452 21.7677C112.594 21.821 112.742 21.8532 112.891 21.8808C113.093 21.9185 113.293 21.9645 113.484 22.0399C113.603 22.0859 113.712 22.1475 113.807 22.233C113.948 22.3599 114.026 22.5181 114.056 22.7021C114.072 22.7995 114.082 22.8961 114.076 22.9945C114.063 23.1922 114.002 23.3716 113.874 23.5288C113.73 23.7054 113.546 23.8222 113.333 23.9004C113.192 23.9528 113.046 23.9813 112.896 23.9933C112.845 23.9979 112.794 23.9951 112.725 23.9988L112.726 23.9997Z" fill="white"/>
<path id="Vector_11" d="M84.7247 22.8099C84.7247 22.5349 84.72 22.26 84.7256 21.985C84.734 21.6024 84.8698 21.264 85.1248 20.9752C85.377 20.6892 85.6944 20.508 86.0731 20.4464C86.5859 20.3627 87.0438 20.4887 87.4355 20.8262C87.725 21.0754 87.899 21.3927 87.9651 21.7661C87.98 21.8516 87.9874 21.9381 87.9874 22.0254C87.9874 22.2572 87.9874 22.489 87.9874 22.7216C87.9874 22.9001 87.872 23.0408 87.6998 23.0776C87.4811 23.1235 87.2699 22.958 87.269 22.7373C87.268 22.5046 87.269 22.271 87.269 22.0383C87.269 21.8305 87.2085 21.6401 87.0745 21.4792C86.8297 21.1839 86.5114 21.0671 86.1364 21.16C85.7651 21.252 85.5408 21.4985 85.4589 21.8682C85.4459 21.9252 85.4431 21.9831 85.4431 22.042C85.4431 22.5763 85.4431 23.1107 85.4431 23.645C85.4431 23.8262 85.3156 23.9678 85.1276 23.9963C84.9629 24.0211 84.7926 23.9135 84.7414 23.7517C84.7293 23.7121 84.7237 23.6726 84.7237 23.6312C84.7237 23.3571 84.7237 23.084 84.7237 22.8099C84.7237 22.8099 84.7237 22.8099 84.7247 22.8099Z" fill="white"/>
<path id="Vector_12" d="M109.784 23.9979C109.302 23.9804 108.87 23.8342 108.519 23.4985C108.261 23.2529 108.11 22.9476 108.05 22.6C107.998 22.3057 107.995 22.0104 108.073 21.7207C108.25 21.0696 108.678 20.6585 109.333 20.4838C109.764 20.3688 110.191 20.4001 110.603 20.5804C110.627 20.5905 110.649 20.6024 110.672 20.6135C110.875 20.7054 110.897 20.9372 110.819 21.0761C110.767 21.1689 110.699 21.2434 110.585 21.2582C110.5 21.2692 110.419 21.2517 110.341 21.2177C110.035 21.0834 109.721 21.0696 109.407 21.1818C109.074 21.3014 108.875 21.5451 108.799 21.8826C108.732 22.1778 108.745 22.4703 108.87 22.7508C109.001 23.0414 109.232 23.2125 109.543 23.2778C109.782 23.3274 110.019 23.3237 110.251 23.241C110.279 23.2309 110.305 23.218 110.332 23.2051C110.401 23.172 110.473 23.1554 110.549 23.1619C110.694 23.1738 110.782 23.2603 110.837 23.3826C110.889 23.4994 110.874 23.6125 110.796 23.7146C110.767 23.7523 110.729 23.779 110.687 23.8001C110.453 23.9151 110.205 23.9795 109.944 23.9951C109.917 23.9969 109.891 23.9979 109.864 23.9979C109.837 23.9979 109.811 23.9979 109.784 23.9979Z" fill="white"/>
<path id="Vector_13" d="M107.314 22.207C107.314 22.6861 107.314 23.1662 107.314 23.6454C107.314 23.7999 107.221 23.9277 107.073 23.9783C106.924 24.0289 106.761 23.9838 106.667 23.8652C106.616 23.8008 106.596 23.7272 106.596 23.6463C106.596 23.2977 106.596 22.9492 106.596 22.6006C106.596 21.989 106.596 21.3774 106.596 20.7668C106.596 20.5994 106.711 20.4596 106.872 20.4293C107.055 20.3943 107.222 20.4771 107.288 20.6334C107.308 20.6785 107.314 20.7263 107.314 20.7751C107.314 21.2524 107.314 21.7297 107.314 22.207Z" fill="white"/>
<path id="Vector_14" d="M105.059 21.1309C105.059 21.9715 105.059 22.813 105.059 23.6536C105.059 23.8164 104.934 23.9617 104.771 23.992C104.587 24.026 104.423 23.9414 104.362 23.7796C104.346 23.7391 104.34 23.6968 104.34 23.6536C104.34 22.8277 104.34 22.0027 104.34 21.1769C104.34 21.1612 104.34 21.1465 104.34 21.1309C104.384 21.1309 104.427 21.1291 104.47 21.1291C104.667 21.1291 104.862 21.1291 105.059 21.13V21.1309Z" fill="white"/>
<path id="Vector_15" d="M105.059 21.1308C104.862 21.1308 104.667 21.1299 104.471 21.1299C104.427 21.1299 104.384 21.1299 104.34 21.1317C104.103 21.1317 103.866 21.1317 103.628 21.1308C103.601 21.1308 103.575 21.1299 103.548 21.1262C103.385 21.1014 103.237 20.9469 103.264 20.7298C103.286 20.545 103.432 20.4226 103.621 20.4226C104.344 20.4226 105.068 20.4226 105.791 20.4226C105.951 20.4226 106.093 20.5385 106.129 20.6958C106.168 20.8668 106.092 21.0305 105.941 21.0995C105.89 21.1234 105.835 21.1308 105.778 21.1308C105.552 21.1308 105.326 21.1308 105.1 21.1308C105.087 21.1308 105.073 21.1308 105.06 21.1317L105.059 21.1308Z" fill="white"/>
<path id="Vector_16" d="M96.5295 23.0868C96.3862 23.0813 96.2746 23.0233 96.2085 22.8946C96.0977 22.6757 96.2243 22.4246 96.4672 22.3786C96.4877 22.3749 96.5091 22.3759 96.5305 22.374C96.8339 22.374 97.1363 22.374 97.4397 22.3749C97.4574 22.3749 97.475 22.3749 97.4927 22.3777C97.6519 22.4025 97.7738 22.5285 97.7933 22.6876C97.8138 22.8504 97.731 22.9976 97.5858 23.0573C97.5355 23.0776 97.4825 23.0831 97.4285 23.0831C97.1419 23.0831 96.8562 23.0831 96.5696 23.0831C96.5565 23.0831 96.5426 23.0803 96.5295 23.0859V23.0868Z" fill="white"/>
<path id="Vector_17" d="M87.9883 23.6425C87.9883 23.8374 87.8283 23.9965 87.63 23.9984C87.4318 23.9993 87.269 23.8393 87.269 23.6425C87.269 23.4475 87.4299 23.2893 87.6291 23.2884C87.8264 23.2884 87.9883 23.4475 87.9892 23.6425H87.9883Z" fill="white"/>
</g>
<g id="Group_4">
<path id="Vector_18" d="M79.2954 21.0193C79.4797 21.0193 79.623 21.0689 79.7272 21.1673C79.8315 21.2657 79.8836 21.4028 79.8836 21.5784C79.8836 21.6695 79.864 21.7559 79.825 21.8387C79.7859 21.9205 79.7272 21.9877 79.6509 22.0383C79.5746 22.0888 79.4788 22.1183 79.3652 22.1247L79.3522 22.0594C79.4332 22.0594 79.5132 22.0704 79.5904 22.0934C79.6686 22.1164 79.7375 22.1523 79.7989 22.202C79.8603 22.2516 79.9096 22.3142 79.9469 22.3887C79.9841 22.4631 80.0027 22.5542 80.0027 22.66C80.0027 22.7722 79.9832 22.8696 79.945 22.9506C79.9069 23.0315 79.8547 23.0977 79.7905 23.1474C79.7263 23.197 79.6519 23.2338 79.569 23.2577C79.4853 23.2817 79.3987 23.2936 79.3094 23.2936H78.4253C78.3992 23.2936 78.376 23.2835 78.3564 23.2642C78.3369 23.2449 78.3267 23.2219 78.3267 23.1961V21.1177C78.3267 21.0919 78.3369 21.0689 78.3564 21.0496C78.376 21.0303 78.3992 21.0202 78.4253 21.0202H79.2964L79.2954 21.0193ZM79.2694 21.2106H78.497L78.536 21.1526V22.0714L78.4998 22.0226H79.2684C79.382 22.0208 79.4788 21.984 79.556 21.9123C79.6342 21.8405 79.6723 21.7348 79.6723 21.5941C79.6723 21.4754 79.637 21.3816 79.5672 21.3126C79.4974 21.2446 79.3969 21.2106 79.2684 21.2106H79.2694ZM79.2926 22.2176H78.5202L78.537 22.1983V23.1308L78.5174 23.1014H79.2992C79.4397 23.1014 79.5569 23.0665 79.6509 22.9956C79.7449 22.9257 79.7924 22.8135 79.7924 22.66C79.7924 22.5514 79.7691 22.465 79.7235 22.3997C79.677 22.3344 79.6165 22.2884 79.5393 22.2599C79.4629 22.2314 79.3801 22.2176 79.2926 22.2176Z" fill="white"/>
<path id="Vector_19" d="M81.7606 21.0064C81.7886 21.0064 81.8127 21.0165 81.8314 21.0376C81.85 21.0579 81.8593 21.0809 81.8593 21.1039C81.8593 21.1149 81.8574 21.125 81.8546 21.1351C81.8509 21.1452 81.8462 21.1554 81.8397 21.1664L81.0673 22.2158L81.1064 22.0888V23.1961C81.1064 23.2219 81.0962 23.2449 81.0766 23.2642C81.0571 23.2835 81.0329 23.2936 81.004 23.2936C80.9752 23.2936 80.9519 23.2835 80.9333 23.2642C80.9147 23.2449 80.9054 23.2219 80.9054 23.1961V22.1118L80.9221 22.19L80.1693 21.1738C80.1609 21.1627 80.1535 21.1517 80.1497 21.1397C80.146 21.1278 80.1432 21.1167 80.1432 21.1057C80.1432 21.0781 80.1544 21.0542 80.1777 21.0358C80.2009 21.0174 80.2242 21.0082 80.2484 21.0082C80.281 21.0082 80.3089 21.0239 80.3303 21.0542L81.0366 22.0061L80.9873 21.9996L81.6741 21.0551C81.6955 21.0248 81.7243 21.0091 81.7597 21.0091L81.7606 21.0064Z" fill="white"/>
</g>
</g>
</g>
</g>
<defs>
<clipPath id="clip0_1_2465">
<rect width="114.078" height="24" fill="white"/>
</clipPath>
</defs>
</svg>
